<!-- <svg width="164" height="50" viewBox="0 0 164 50" fill="none" xmlns="http://www.w3.org/2000/svg">
<path d="M78.55 16.45V28.4C78.55 30.25 78.025 31.675 76.975 32.675C75.9417 33.675 74.5417 34.175 72.775 34.175C70.925 34.175 69.4417 33.65 68.325 32.6C67.2083 31.55 66.65 30.0583 66.65 28.125H70.9C70.9 28.8583 71.05 29.4167 71.35 29.8C71.65 30.1667 72.0833 30.35 72.65 30.35C73.1667 30.35 73.5667 30.1833 73.85 29.85C74.1333 29.5167 74.275 29.0333 74.275 28.4V16.45H78.55ZM90.8531 34.2C89.4865 34.2 88.2531 33.9083 87.1531 33.325C86.0698 32.7417 85.2115 31.9083 84.5781 30.825C83.9615 29.7417 83.6531 28.475 83.6531 27.025C83.6531 25.5917 83.9698 24.3333 84.6031 23.25C85.2365 22.15 86.1031 21.3083 87.2031 20.725C88.3031 20.1417 89.5365 19.85 90.9031 19.85C92.2698 19.85 93.5031 20.1417 94.6031 20.725C95.7031 21.3083 96.5698 22.15 97.2031 23.25C97.8365 24.3333 98.1531 25.5917 98.1531 27.025C98.1531 28.4583 97.8281 29.725 97.1781 30.825C96.5448 31.9083 95.6698 32.7417 94.5531 33.325C93.4531 33.9083 92.2198 34.2 90.8531 34.2ZM90.8531 30.5C91.6698 30.5 92.3615 30.2 92.9281 29.6C93.5115 29 93.8031 28.1417 93.8031 27.025C93.8031 25.9083 93.5198 25.05 92.9531 24.45C92.4031 23.85 91.7198 23.55 90.9031 23.55C90.0698 23.55 89.3781 23.85 88.8281 24.45C88.2781 25.0333 88.0031 25.8917 88.0031 27.025C88.0031 28.1417 88.2698 29 88.8031 29.6C89.3531 30.2 90.0365 30.5 90.8531 30.5ZM107.196 22.025C107.596 21.375 108.171 20.85 108.921 20.45C109.671 20.05 110.529 19.85 111.496 19.85C112.646 19.85 113.688 20.1417 114.621 20.725C115.554 21.3083 116.288 22.1417 116.821 23.225C117.371 24.3083 117.646 25.5667 117.646 27C117.646 28.4333 117.371 29.7 116.821 30.8C116.288 31.8833 115.554 32.725 114.621 33.325C113.688 33.9083 112.646 34.2 111.496 34.2C110.513 34.2 109.654 34.0083 108.921 33.625C108.188 33.225 107.613 32.7 107.196 32.05V34H102.921V15.5H107.196V22.025ZM113.296 27C113.296 25.9333 112.996 25.1 112.396 24.5C111.813 23.8833 111.088 23.575 110.221 23.575C109.371 23.575 108.646 23.8833 108.046 24.5C107.463 25.1167 107.171 25.9583 107.171 27.025C107.171 28.0917 107.463 28.9333 108.046 29.55C108.646 30.1667 109.371 30.475 110.221 30.475C111.071 30.475 111.796 30.1667 112.396 29.55C112.996 28.9167 113.296 28.0667 113.296 27ZM124.539 18.6C123.789 18.6 123.172 18.3833 122.689 17.95C122.222 17.5 121.989 16.95 121.989 16.3C121.989 15.6333 122.222 15.0833 122.689 14.65C123.172 14.2 123.789 13.975 124.539 13.975C125.272 13.975 125.872 14.2 126.339 14.65C126.822 15.0833 127.064 15.6333 127.064 16.3C127.064 16.95 126.822 17.5 126.339 17.95C125.872 18.3833 125.272 18.6 124.539 18.6ZM126.664 20.05V34H122.389V20.05H126.664ZM139.262 23.6H136.962V34H132.687V23.6H131.137V20.05H132.687V19.65C132.687 17.9333 133.179 16.6333 134.162 15.75C135.145 14.85 136.587 14.4 138.487 14.4C138.804 14.4 139.037 14.4083 139.187 14.425V18.05C138.37 18 137.795 18.1167 137.462 18.4C137.129 18.6833 136.962 19.1917 136.962 19.925V20.05H139.262V23.6ZM158.021 20.05L149.271 40.625H144.671L147.871 33.525L142.196 20.05H146.971L150.196 28.775L153.396 20.05H158.021Z" fill="#2CB1BC"/>
<rect width="50" height="50" rx="10" fill="#2CB1BC"/>
<path d="M26.0039 9.5625H31.8633V29.25C31.8633 31.0599 31.4596 32.6615 30.6523 34.0547C29.8581 35.4349 28.7318 36.5026 27.2734 37.2578C25.8151 38.013 24.168 38.3906 22.332 38.3906C19.3242 38.3906 16.9805 37.6289 15.3008 36.1055C13.6211 34.569 12.7812 32.401 12.7812 29.6016H18.6797C18.6797 30.9948 18.9727 32.0234 19.5586 32.6875C20.1445 33.3516 21.069 33.6836 22.332 33.6836C23.4518 33.6836 24.3438 33.2995 25.0078 32.5312C25.6719 31.763 26.0039 30.6693 26.0039 29.25V9.5625Z" fill="white"/>
</svg> -->


<svg version="1.1" id="Layer_1" xmlns="http://www.w3.org/2000/svg" xmlns:xlink="http://www.w3.org/1999/xlink" x="0px" y="0px"
	 width="164" height="" viewBox="0 0 476 171" enable-background="new 0 0 476 171" xml:space="preserve">
<path fill="#FFF" opacity="0" stroke="none" 
	d="
M79.000000,172.000000 
	C53.008896,172.000000 27.017792,172.000000 1.020015,172.000000 
	C1.013343,115.028397 1.013343,58.056793 1.013343,1.042595 
	C159.583969,1.042595 318.167969,1.042595 476.875977,1.042595 
	C476.875977,57.897575 476.875977,114.795517 476.875977,172.000000 
	C349.645935,172.000000 222.291626,172.000000 94.159401,171.645813 
	C94.060898,170.873215 94.716599,170.135803 95.423210,170.083298 
	C110.965561,168.928101 124.739792,163.146423 137.126373,153.955475 
	C148.761536,145.322067 157.176376,134.149902 163.122879,120.905525 
	C169.207977,107.352432 171.026840,93.168457 169.908295,78.624023 
	C169.030777,67.213524 165.530441,56.370472 159.835205,46.380459 
	C154.547379,37.105057 148.202454,28.713236 139.640656,22.052139 
	C131.082779,15.394099 121.937233,10.017189 111.486389,6.991536 
	C99.735245,3.589425 87.741913,2.524862 75.638908,4.094158 
	C69.888443,4.839773 64.059685,5.986091 58.619202,7.935513 
	C39.899197,14.643225 25.199738,26.469297 14.865360,43.612530 
	C3.614946,62.275341 0.225264,82.483955 4.449168,103.580261 
	C8.104877,121.838707 16.947498,137.486526 31.307121,149.955444 
	C44.400982,161.325272 59.260353,168.101227 76.428368,170.073944 
	C77.347214,170.179520 78.145554,171.333878 79.000000,172.000000 
M462.065613,111.672485 
	C466.614441,100.889046 471.163269,90.105606 475.723389,79.295395 
	C471.247925,78.268898 468.984650,79.539894 467.828400,83.894493 
	C466.677521,88.228821 464.437988,92.274055 462.420746,97.049957 
	C460.714996,92.739143 459.014679,89.227219 457.935547,85.533791 
	C456.251312,79.769302 453.299866,77.389076 447.232574,79.883850 
	C445.545410,80.577591 443.331238,79.989548 441.376434,79.989548 
	C441.141693,74.135765 442.301636,72.840721 448.810425,71.316689 
	C448.529175,68.054649 448.529175,68.054642 445.293640,68.001221 
	C438.477814,67.888657 436.828796,69.864128 435.634796,79.191940 
	C434.277588,80.002174 433.159302,80.669785 432.040985,81.337395 
	C432.832153,82.222778 433.746552,83.028900 434.381073,84.015091 
	C435.058594,85.068192 435.899780,86.280571 435.928894,87.441994 
	C436.081940,93.545341 436.000549,99.654572 436.000549,106.051109 
	C437.982971,105.912514 439.372711,105.815353 441.203125,105.687386 
	C441.203125,98.273186 441.203125,91.198921 441.203125,84.543144 
	C444.402374,83.956245 447.056519,83.469345 450.238068,82.885696 
	C450.945892,84.429565 452.377930,87.133011 453.450165,89.972336 
	C456.381500,97.734726 462.499176,105.331245 455.085541,113.833107 
	C454.985901,113.947395 455.273895,114.399712 455.818359,115.897202 
	C457.969360,114.687828 459.947876,113.575447 462.065613,111.672485 
M384.050201,98.274651 
	C384.678436,99.772232 385.100555,101.409569 385.994080,102.727249 
	C386.849792,103.989197 388.361237,105.916817 389.286560,105.762711 
	C390.697021,105.527832 392.424225,103.990738 393.009888,102.586578 
	C395.051697,97.691147 396.660828,92.615234 398.574493,87.212448 
	C400.588409,93.704567 402.486847,99.824402 404.651154,106.801445 
	C406.971771,105.861755 410.232147,105.519608 410.701660,104.191132 
	C413.545227,96.145226 415.751556,87.874107 418.181549,79.641891 
	C412.888397,78.691933 412.828430,78.673973 411.548157,82.949272 
	C410.190826,87.481987 408.963013,92.053490 407.678619,96.608055 
	C405.450897,92.621201 404.409698,88.428596 402.905243,84.409401 
	C402.104218,82.269386 402.686584,78.998688 398.589935,78.903008 
	C394.449341,78.806305 394.908569,82.086342 394.117188,84.227684 
	C392.581635,88.382637 391.501404,92.705864 390.232513,96.959366 
	C388.190704,92.647385 386.871582,88.641731 386.050751,84.536461 
	C385.155792,80.060295 383.194916,77.734077 378.433655,79.339966 
	C380.286896,85.375053 382.141266,91.413773 384.050201,98.274651 
M364.650299,91.998581 
	C368.723785,91.998581 372.797272,91.998581 376.845642,91.998581 
	C376.942139,85.130112 374.702423,80.833084 370.533508,79.173347 
	C366.120697,77.416512 357.665466,79.199707 355.365295,83.440323 
	C353.623932,86.650627 353.256104,90.841766 353.119385,94.626831 
	C352.948975,99.344208 355.076141,103.984291 359.731567,104.976059 
	C364.245667,105.937729 369.239166,104.925835 373.964813,104.327866 
	C374.698120,104.235077 375.125214,101.722389 375.693878,100.328751 
	C374.289307,100.251762 372.610809,99.639038 371.528503,100.192375 
	C367.294434,102.357048 363.346741,102.924873 360.279816,98.639160 
	C359.042786,96.910553 358.681000,94.555618 357.742035,91.998581 
	C360.100372,91.998581 361.904114,91.998581 364.650299,91.998581 
M279.944519,101.501770 
	C274.161072,102.193138 272.124847,100.268539 270.210693,91.998337 
	C276.398499,91.998337 282.503632,91.998337 288.559906,91.998337 
	C289.229767,85.689575 286.832642,80.829147 282.459595,79.157684 
	C277.610809,77.304398 268.272400,79.741554 266.578308,84.172432 
	C265.170654,87.854111 264.369415,92.473145 265.325531,96.150131 
	C266.240234,99.667809 269.164673,104.041443 272.292542,105.268478 
	C276.541901,106.935463 282.064819,107.484344 286.362305,103.957428 
	C287.227081,103.247719 287.222107,101.478218 287.618134,100.197350 
	C286.349915,100.141800 285.065155,99.937096 283.818481,100.075493 
	C282.720886,100.197327 281.665894,100.702797 279.944519,101.501770 
M217.999649,82.765190 
	C217.999649,90.373070 217.999649,97.980942 217.999649,105.738754 
	C220.183304,105.738754 221.902176,105.738754 224.001190,105.738754 
	C224.001190,99.867256 224.141022,94.240112 223.955780,88.623695 
	C223.814285,84.333527 227.560822,84.061829 229.923141,83.370384 
	C231.169571,83.005554 234.580124,85.537743 234.841858,87.120956 
	C235.746246,92.591171 235.690353,98.219513 236.017807,103.786606 
	C236.055069,104.420242 236.204361,105.047302 236.307419,105.714348 
	C237.888214,105.714348 239.274811,105.714348 240.995529,105.714348 
	C240.995529,98.985336 241.199707,92.518883 240.921631,86.073250 
	C240.744904,81.977188 238.067352,79.261040 234.028000,79.132683 
	C230.446991,79.018875 226.831604,79.986359 223.285538,80.469147 
	C222.552307,80.121483 221.318375,79.050949 220.217072,79.173393 
	C219.390015,79.265350 218.733368,80.890129 217.999649,82.765190 
M326.253937,105.990005 
	C327.017853,105.294479 328.147797,104.743576 328.488647,103.880890 
	C331.682953,95.796326 334.742188,87.658401 337.894714,79.393654 
	C334.313080,78.554306 331.900970,78.473129 330.753784,83.175453 
	C329.520874,88.229073 326.856506,92.933464 324.681488,98.112335 
	C322.206207,91.524384 319.903442,85.395538 317.581696,79.216240 
	C315.778015,79.216240 314.002075,79.216240 311.399048,79.216240 
	C314.645508,87.269463 317.980835,94.770935 320.625000,102.508583 
	C321.589813,105.331902 322.748993,106.298019 326.253937,105.990005 
M262.510681,102.995132 
	C261.928925,102.047348 261.347198,101.099556 260.780365,100.176056 
	C259.262390,100.874855 257.971741,101.469002 256.348602,102.216202 
	C252.039719,96.036232 254.836777,89.443192 253.913803,83.185989 
	C262.101105,82.796806 262.101105,82.796806 261.079346,78.796219 
	C258.891449,78.796219 256.625275,78.796219 253.929749,78.796219 
	C253.929749,75.737129 253.929749,72.988014 253.929749,70.238899 
	C253.378189,69.976456 252.826630,69.714012 252.275085,69.451569 
	C249.914536,73.709991 247.554001,77.968414 245.023163,82.534058 
	C246.386520,82.876434 247.686813,83.202965 249.002716,83.533424 
	C249.002716,89.377136 248.738770,94.870071 249.143936,100.313210 
	C249.288422,102.254341 251.058304,105.665077 252.079620,105.662613 
	C255.644806,105.653992 259.207092,104.446526 262.510681,102.995132 
M204.000092,89.498131 
	C204.000092,94.917885 204.000092,100.337646 204.000092,106.038689 
	C206.318893,105.931061 208.038651,105.851242 210.000168,105.760193 
	C210.000168,99.222084 210.000168,93.106529 210.000168,86.990982 
	C210.000168,80.741417 210.000168,74.491852 210.000168,67.961670 
	C207.679214,68.069206 205.961823,68.148781 204.000092,68.239677 
	C204.000092,75.273613 204.000092,81.886185 204.000092,89.498131 
M298.999084,94.703384 
	C299.012970,86.091545 302.389038,82.905960 309.722351,84.804024 
	C310.156799,82.999191 310.587585,81.209564 311.267365,78.385529 
	C306.712921,79.150650 303.022522,79.770622 299.147888,80.421539 
	C298.143860,79.991127 296.443848,79.262367 294.215088,78.306938 
	C294.215088,88.026283 294.215088,96.787331 294.215088,105.759903 
	C295.813263,105.759903 297.200409,105.759903 298.999084,105.759903 
	C298.999084,102.243889 298.999084,98.944260 298.999084,94.703384 
M421.999908,94.482254 
	C421.999908,98.237823 421.999908,101.993385 421.999908,106.035591 
	C424.310364,105.930466 426.027802,105.852318 427.710022,105.775772 
	C427.710022,96.649422 427.710022,87.953300 427.710022,78.977509 
	C425.688232,79.069542 423.970764,79.147720 421.999908,79.237427 
	C421.999908,84.263771 421.999908,88.877838 421.999908,94.482254 
M346.349121,105.853745 
	C346.349121,97.013374 346.349121,88.173012 346.349121,79.289749 
	C345.098602,79.289749 343.714508,79.289749 342.003571,79.289749 
	C342.003571,87.497116 342.102966,95.428284 341.950958,103.354637 
	C341.895935,106.223969 343.515686,106.109856 346.349121,105.853745 
M424.596893,74.988731 
	C427.504974,74.857849 429.498260,73.580093 428.654633,70.467392 
	C428.369568,69.415520 426.471649,68.243431 425.238159,68.156425 
	C423.898102,68.061905 422.473389,69.166801 421.085602,69.748703 
	C421.988739,71.477097 422.891876,73.205490 424.596893,74.988731 
M347.929657,69.818680 
	C345.931458,69.412712 343.933228,69.006752 341.935028,68.600792 
	C341.660706,70.153847 340.756073,72.002319 341.303436,73.170288 
	C341.776001,74.178635 344.363770,75.251923 345.187622,74.796669 
	C346.486359,74.078979 347.090424,72.104111 347.929657,69.818680 
z"/>
<path fill="#219CEE" opacity="1.000000" stroke="none" 
	d="
M79.466110,172.000000 
	C78.145554,171.333878 77.347214,170.179520 76.428368,170.073944 
	C59.260353,168.101227 44.400982,161.325272 31.307121,149.955444 
	C16.947498,137.486526 8.104877,121.838707 4.449168,103.580261 
	C0.225264,82.483955 3.614946,62.275341 14.865360,43.612530 
	C25.199738,26.469297 39.899197,14.643225 58.619202,7.935513 
	C64.059685,5.986091 69.888443,4.839773 75.638908,4.094158 
	C87.741913,2.524862 99.735245,3.589425 111.486389,6.991536 
	C121.937233,10.017189 131.082779,15.394099 139.640656,22.052139 
	C148.202454,28.713236 154.547379,37.105057 159.835205,46.380459 
	C165.530441,56.370472 169.030777,67.213524 169.908295,78.624023 
	C171.026840,93.168457 169.207977,107.352432 163.122879,120.905525 
	C157.176376,134.149902 148.761536,145.322067 137.126373,153.955475 
	C124.739792,163.146423 110.965561,168.928101 95.423210,170.083298 
	C94.716599,170.135803 94.060898,170.873215 93.690742,171.645813 
	C89.310745,172.000000 84.621490,172.000000 79.466110,172.000000 
M131.762314,83.284225 
	C132.409836,81.675713 133.057358,80.067200 133.766190,78.306396 
	C126.631256,76.640411 129.251251,84.723930 125.159462,86.070702 
	C124.994484,83.393295 124.835815,80.818382 124.668846,78.108795 
	C118.497124,77.545120 120.457024,84.687622 116.342033,86.054047 
	C116.141388,83.347778 115.951721,80.789581 115.762054,78.231384 
	C115.301353,77.980614 114.840645,77.729851 114.379936,77.479080 
	C113.589577,78.525955 112.138374,79.569427 112.132965,80.620331 
	C112.116859,83.752182 112.536751,86.909615 113.070602,90.008080 
	C113.253662,91.070526 114.209244,92.724709 114.932861,92.791153 
	C115.901917,92.880142 117.236526,91.892189 117.969391,91.000923 
	C119.215744,89.485199 120.115150,87.684174 121.806389,84.963905 
	C121.923752,87.259483 121.786095,88.145523 122.046692,88.892662 
	C122.535545,90.294250 123.254791,91.615479 123.878220,92.970116 
	C125.159798,92.119049 126.770416,91.517975 127.649391,90.361038 
	C129.139542,88.399651 130.167953,86.087471 131.762314,83.284225 
M155.720673,82.212280 
	C155.858139,83.537880 155.892090,84.884201 156.152573,86.185173 
	C156.917786,90.007477 159.039902,94.365784 152.183502,94.717972 
	C151.785355,94.738426 151.467087,96.314003 151.089706,97.218445 
	C158.263657,98.865417 164.593109,92.044998 168.892929,78.376762 
	C161.968689,76.223701 164.715378,84.666084 160.420959,85.888489 
	C160.247208,84.198196 160.321884,82.552673 159.848740,81.083611 
	C159.480148,79.939240 158.429794,79.014442 157.682419,77.992073 
	C156.996429,79.123825 156.310440,80.255577 155.720673,82.212280 
M145.837173,75.416649 
	C143.647842,82.652519 141.458511,89.888390 139.269165,97.124260 
	C139.492493,97.465118 139.715805,97.805977 139.939133,98.146835 
	C141.259369,97.189087 143.054260,96.502785 143.792343,95.212128 
	C145.001862,93.097023 145.572769,90.604530 146.325348,88.243256 
	C147.363129,84.987175 147.002380,80.619537 152.455154,81.013634 
	C152.758194,81.035538 153.177841,79.444038 153.605133,78.461029 
	C152.000595,78.090019 150.699326,77.789146 148.925507,77.378998 
	C151.619171,75.974045 153.751953,74.861633 155.884735,73.749229 
	C155.473236,72.912392 155.061737,72.075554 154.650223,71.238716 
	C151.846512,72.410561 149.042801,73.582405 145.837173,75.416649 
M104.304558,89.298752 
	C103.155479,88.986046 102.006401,88.673340 100.857323,88.360634 
	C102.875198,86.972275 104.977158,86.942238 106.251427,85.900124 
	C107.680428,84.731476 108.360817,82.647469 109.366913,80.961723 
	C107.660896,79.979134 105.979401,78.217445 104.244171,78.162796 
	C99.407120,78.010490 95.333717,83.291229 96.085899,88.057968 
	C96.735779,92.176468 102.472870,94.825432 105.817192,92.387398 
	C106.173523,92.127632 105.387878,90.301384 104.304558,89.298752 
M45.358063,85.849968 
	C45.024113,90.291870 46.911716,93.019508 51.517746,92.905838 
	C53.159992,92.865311 54.772861,91.634392 56.399139,90.946838 
	C56.191250,90.489426 55.983360,90.032021 55.775467,89.574608 
	C53.866119,89.260117 51.956768,88.945633 50.047421,88.631149 
	C51.936409,87.048927 54.121384,86.978477 55.517372,85.893181 
	C56.974731,84.760185 57.672310,82.649895 58.702042,80.966850 
	C56.974003,79.982399 55.237137,78.160416 53.519665,78.178528 
	C49.238060,78.223656 46.617889,80.959526 45.358063,85.849968 
M17.922380,90.027817 
	C18.288111,91.017700 18.653839,92.007576 19.019569,92.997459 
	C19.989563,92.358322 21.482588,91.923546 21.827707,91.040253 
	C22.724907,88.743996 22.976439,86.201607 23.788721,83.862686 
	C24.073208,83.043526 25.242065,82.531487 26.007078,81.879204 
	C26.425808,82.811302 27.272844,83.787354 27.182571,84.667229 
	C26.916962,87.256096 26.279514,89.806801 25.783062,92.396309 
	C29.820639,92.824699 29.742069,92.805908 31.348166,86.090027 
	C32.197556,82.538315 32.516602,79.321617 28.086891,78.134094 
	C23.408850,76.879982 20.721525,78.632500 19.494810,83.465584 
	C19.005308,85.394150 18.529957,87.326294 17.922380,90.027817 
M82.751839,88.288094 
	C84.533829,85.069046 86.315826,81.849998 88.228203,78.395416 
	C80.942146,76.592300 83.125412,85.075546 78.382378,85.956787 
	C78.168365,83.383095 77.967247,80.964539 77.744133,78.281387 
	C76.428413,78.281387 75.232521,78.281387 73.426521,78.281387 
	C74.010429,82.649132 74.309074,86.759735 75.281792,90.704094 
	C75.497307,91.577988 78.219795,92.493629 79.554367,92.225868 
	C80.651718,92.005699 81.402847,90.059891 82.751839,88.288094 
M38.026196,74.276184 
	C36.701931,78.973900 35.016003,83.616928 34.291843,88.405396 
	C34.095520,89.703583 36.550236,92.072166 38.266861,92.767227 
	C39.521774,93.275337 41.560570,91.847458 43.249954,91.282539 
	C43.078053,90.802292 42.906151,90.322044 42.734249,89.841789 
	C41.382504,89.450409 40.030754,89.059036 39.103104,88.790443 
	C36.486263,82.505363 42.556110,81.843468 44.601830,79.995872 
	C43.030762,77.656250 42.134438,76.092377 40.989532,74.738754 
	C40.580128,74.254707 39.569691,74.279015 38.026196,74.276184 
M15.420670,83.138039 
	C16.097998,80.277512 16.775326,77.416985 17.452654,74.556458 
	C17.064880,74.194679 16.677105,73.832901 16.289331,73.471130 
	C15.090753,74.453125 13.193380,75.220848 12.815144,76.454391 
	C11.218497,81.661522 10.074477,87.007431 8.764917,92.302589 
	C9.177943,92.689415 9.590970,93.076241 10.003996,93.463058 
	C11.250552,92.389473 12.960850,91.544914 13.631511,90.186913 
	C14.563288,88.300201 14.715341,86.028412 15.420670,83.138039 
M69.071854,81.678535 
	C70.006767,80.835175 70.941673,79.991821 72.417229,78.660751 
	C62.700932,77.211594 59.743855,81.115120 60.971546,93.180046 
	C62.455338,92.223282 63.692211,91.020020 64.485931,89.573578 
	C65.889008,87.016647 67.022316,84.311684 69.071854,81.678535 
M87.554749,92.292282 
	C88.993797,91.938866 91.470085,91.911324 91.700424,91.178162 
	C93.011536,87.004974 93.786705,82.663406 94.744110,78.379097 
	C94.261993,78.054497 93.779877,77.729897 93.297760,77.405304 
	C92.201317,78.542572 90.554848,79.501137 90.115952,80.852036 
	C88.990257,84.316841 88.400963,87.955925 87.554749,92.292282 
M136.947708,92.575829 
	C138.176163,87.862648 139.404633,83.149467 140.633087,78.436279 
	C139.879761,78.154770 139.126419,77.873260 138.373093,77.591751 
	C133.803589,81.231491 135.076920,87.508545 132.742996,92.765022 
	C134.340714,92.844933 135.285889,92.892204 136.947708,92.575829 
z"/>
<path fill="#1F9CEE" opacity="1.000000" stroke="none" 
	d="
M461.995972,112.067772 
	C459.947876,113.575447 457.969360,114.687828 455.818359,115.897202 
	C455.273895,114.399712 454.985901,113.947395 455.085541,113.833107 
	C462.499176,105.331245 456.381500,97.734726 453.450165,89.972336 
	C452.377930,87.133011 450.945892,84.429565 450.238068,82.885696 
	C447.056519,83.469345 444.402374,83.956245 441.203125,84.543144 
	C441.203125,91.198921 441.203125,98.273186 441.203125,105.687386 
	C439.372711,105.815353 437.982971,105.912514 436.000549,106.051109 
	C436.000549,99.654572 436.081940,93.545341 435.928894,87.441994 
	C435.899780,86.280571 435.058594,85.068192 434.381073,84.015091 
	C433.746552,83.028900 432.832153,82.222778 432.040985,81.337402 
	C433.159302,80.669785 434.277588,80.002174 435.634796,79.191940 
	C436.828796,69.864128 438.477814,67.888657 445.293640,68.001221 
	C448.529175,68.054642 448.529175,68.054649 448.810425,71.316689 
	C442.301636,72.840721 441.141693,74.135765 441.376434,79.989548 
	C443.331238,79.989548 445.545410,80.577591 447.232574,79.883850 
	C453.299866,77.389076 456.251312,79.769302 457.935547,85.533791 
	C459.014679,89.227219 460.714996,92.739143 462.420746,97.049957 
	C464.437988,92.274055 466.677521,88.228821 467.828400,83.894493 
	C468.984650,79.539894 471.247925,78.268898 475.723389,79.295395 
	C471.163269,90.105606 466.614441,100.889046 461.995972,112.067772 
z"/>
<path fill="#1F9CEF" opacity="1.000000" stroke="none" 
	d="
M384.022919,97.863571 
	C382.141266,91.413773 380.286896,85.375053 378.433655,79.339966 
	C383.194916,77.734077 385.155792,80.060295 386.050751,84.536461 
	C386.871582,88.641731 388.190704,92.647385 390.232513,96.959366 
	C391.501404,92.705864 392.581635,88.382637 394.117188,84.227684 
	C394.908569,82.086342 394.449341,78.806305 398.589935,78.903008 
	C402.686584,78.998688 402.104218,82.269386 402.905243,84.409401 
	C404.409698,88.428596 405.450897,92.621201 407.678619,96.608055 
	C408.963013,92.053490 410.190826,87.481987 411.548157,82.949272 
	C412.828430,78.673973 412.888397,78.691933 418.181549,79.641891 
	C415.751556,87.874107 413.545227,96.145226 410.701660,104.191132 
	C410.232147,105.519608 406.971771,105.861755 404.651154,106.801445 
	C402.486847,99.824402 400.588409,93.704567 398.574493,87.212448 
	C396.660828,92.615234 395.051697,97.691147 393.009888,102.586578 
	C392.424225,103.990738 390.697021,105.527832 389.286560,105.762711 
	C388.361237,105.916817 386.849792,103.989197 385.994080,102.727249 
	C385.100555,101.409569 384.678436,99.772232 384.022919,97.863571 
z"/>
<path fill="#1F9CEF" opacity="1.000000" stroke="none" 
	d="
M364.179077,91.998581 
	C361.904114,91.998581 360.100372,91.998581 357.742035,91.998581 
	C358.681000,94.555618 359.042786,96.910553 360.279816,98.639160 
	C363.346741,102.924873 367.294434,102.357048 371.528503,100.192375 
	C372.610809,99.639038 374.289307,100.251762 375.693878,100.328751 
	C375.125214,101.722389 374.698120,104.235077 373.964813,104.327866 
	C369.239166,104.925835 364.245667,105.937729 359.731567,104.976059 
	C355.076141,103.984291 352.948975,99.344208 353.119385,94.626831 
	C353.256104,90.841766 353.623932,86.650627 355.365295,83.440323 
	C357.665466,79.199707 366.120697,77.416512 370.533508,79.173347 
	C374.702423,80.833084 376.942139,85.130112 376.845642,91.998581 
	C372.797272,91.998581 368.723785,91.998581 364.179077,91.998581 
M364.545227,89.001579 
	C366.836151,89.001579 369.127075,89.001579 371.395325,89.001579 
	C371.271698,84.726334 369.008759,82.662537 365.156525,83.098404 
	C362.140930,83.439606 359.023529,84.422714 359.119049,89.001564 
	C360.736755,89.001564 362.194092,89.001564 364.545227,89.001579 
z"/>
<path fill="#1F9CEF" opacity="1.000000" stroke="none" 
	d="
M280.268311,101.270309 
	C281.665894,100.702797 282.720886,100.197327 283.818481,100.075493 
	C285.065155,99.937096 286.349915,100.141800 287.618134,100.197342 
	C287.222107,101.478218 287.227081,103.247719 286.362305,103.957428 
	C282.064819,107.484344 276.541901,106.935463 272.292542,105.268478 
	C269.164673,104.041443 266.240234,99.667809 265.325531,96.150131 
	C264.369415,92.473145 265.170654,87.854111 266.578308,84.172432 
	C268.272400,79.741554 277.610809,77.304398 282.459595,79.157684 
	C286.832642,80.829147 289.229767,85.689575 288.559906,91.998337 
	C282.503632,91.998337 276.398499,91.998337 270.210693,91.998337 
	C272.124847,100.268539 274.161072,102.193138 280.268311,101.270309 
M271.050446,87.011314 
	C271.878754,87.673683 272.671722,88.847313 273.541656,88.907440 
	C276.820251,89.134079 280.123871,88.998421 283.464935,88.998421 
	C281.942627,82.041809 277.216431,81.042877 271.050446,87.011314 
z"/>
<path fill="#1F9CEF" opacity="1.000000" stroke="none" 
	d="
M218.000244,82.298851 
	C218.733368,80.890129 219.390015,79.265350 220.217072,79.173393 
	C221.318375,79.050949 222.552307,80.121483 223.285538,80.469147 
	C226.831604,79.986359 230.446991,79.018875 234.028000,79.132683 
	C238.067352,79.261040 240.744904,81.977188 240.921631,86.073250 
	C241.199707,92.518883 240.995529,98.985336 240.995529,105.714348 
	C239.274811,105.714348 237.888214,105.714348 236.307419,105.714348 
	C236.204361,105.047302 236.055069,104.420242 236.017807,103.786606 
	C235.690353,98.219513 235.746246,92.591171 234.841858,87.120956 
	C234.580124,85.537743 231.169571,83.005554 229.923141,83.370384 
	C227.560822,84.061829 223.814285,84.333527 223.955780,88.623695 
	C224.141022,94.240112 224.001190,99.867256 224.001190,105.738754 
	C221.902176,105.738754 220.183304,105.738754 217.999649,105.738754 
	C217.999649,97.980942 217.999649,90.373070 218.000244,82.298851 
z"/>
<path fill="#1F9CEF" opacity="1.000000" stroke="none" 
	d="
M325.839752,105.993851 
	C322.748993,106.298019 321.589813,105.331902 320.625000,102.508583 
	C317.980835,94.770935 314.645508,87.269463 311.399048,79.216240 
	C314.002075,79.216240 315.778015,79.216240 317.581696,79.216240 
	C319.903442,85.395538 322.206207,91.524384 324.681488,98.112335 
	C326.856506,92.933464 329.520874,88.229073 330.753784,83.175453 
	C331.900970,78.473129 334.313080,78.554306 337.894714,79.393654 
	C334.742188,87.658401 331.682953,95.796326 328.488647,103.880890 
	C328.147797,104.743576 327.017853,105.294479 325.839752,105.993851 
z"/>
<path fill="#1F9CEE" opacity="1.000000" stroke="none" 
	d="
M262.640564,103.344887 
	C259.207092,104.446526 255.644806,105.653992 252.079620,105.662613 
	C251.058304,105.665077 249.288422,102.254341 249.143936,100.313210 
	C248.738770,94.870071 249.002716,89.377136 249.002716,83.533424 
	C247.686813,83.202965 246.386520,82.876434 245.023163,82.534058 
	C247.554001,77.968414 249.914536,73.709991 252.275085,69.451569 
	C252.826630,69.714012 253.378189,69.976456 253.929749,70.238899 
	C253.929749,72.988014 253.929749,75.737129 253.929749,78.796219 
	C256.625275,78.796219 258.891449,78.796219 261.079346,78.796219 
	C262.101105,82.796806 262.101105,82.796806 253.913803,83.185989 
	C254.836777,89.443192 252.039719,96.036232 256.348602,102.216202 
	C257.971741,101.469002 259.262390,100.874855 260.780365,100.176056 
	C261.347198,101.099556 261.928925,102.047348 262.640564,103.344887 
z"/>
<path fill="#1F9CEF" opacity="1.000000" stroke="none" 
	d="
M204.000092,88.998444 
	C204.000092,81.886185 204.000092,75.273613 204.000092,68.239677 
	C205.961823,68.148781 207.679214,68.069206 210.000168,67.961670 
	C210.000168,74.491852 210.000168,80.741417 210.000168,86.990982 
	C210.000168,93.106529 210.000168,99.222084 210.000168,105.760193 
	C208.038651,105.851242 206.318893,105.931061 204.000092,106.038689 
	C204.000092,100.337646 204.000092,94.917885 204.000092,88.998444 
z"/>
<path fill="#1F9CEE" opacity="1.000000" stroke="none" 
	d="
M298.999084,95.174011 
	C298.999084,98.944260 298.999084,102.243889 298.999084,105.759903 
	C297.200409,105.759903 295.813263,105.759903 294.215088,105.759903 
	C294.215088,96.787331 294.215088,88.026283 294.215088,78.306938 
	C296.443848,79.262367 298.143860,79.991127 299.147888,80.421539 
	C303.022522,79.770622 306.712921,79.150650 311.267365,78.385529 
	C310.587585,81.209564 310.156799,82.999191 309.722351,84.804024 
	C302.389038,82.905960 299.012970,86.091545 298.999084,95.174011 
z"/>
<path fill="#1F9CEF" opacity="1.000000" stroke="none" 
	d="
M421.999908,93.987083 
	C421.999908,88.877838 421.999908,84.263771 421.999908,79.237427 
	C423.970764,79.147720 425.688232,79.069542 427.710022,78.977509 
	C427.710022,87.953300 427.710022,96.649422 427.710022,105.775772 
	C426.027802,105.852318 424.310364,105.930466 421.999908,106.035591 
	C421.999908,101.993385 421.999908,98.237823 421.999908,93.987083 
z"/>
<path fill="#1F9CEF" opacity="1.000000" stroke="none" 
	d="
M345.888245,105.916046 
	C343.515686,106.109856 341.895935,106.223969 341.950958,103.354637 
	C342.102966,95.428284 342.003571,87.497116 342.003571,79.289749 
	C343.714508,79.289749 345.098602,79.289749 346.349121,79.289749 
	C346.349121,88.173012 346.349121,97.013374 345.888245,105.916046 
z"/>
<path fill="#1F9CEF" opacity="1.000000" stroke="none" 
	d="
M424.195953,74.961304 
	C422.891876,73.205490 421.988739,71.477097 421.085602,69.748703 
	C422.473389,69.166801 423.898102,68.061905 425.238159,68.156425 
	C426.471649,68.243431 428.369568,69.415520 428.654633,70.467392 
	C429.498260,73.580093 427.504974,74.857849 424.195953,74.961304 
z"/>
<path fill="#1E9CEF" opacity="1.000000" stroke="none" 
	d="
M347.959106,70.240044 
	C347.090424,72.104111 346.486359,74.078979 345.187622,74.796669 
	C344.363770,75.251923 341.776001,74.178635 341.303436,73.170288 
	C340.756073,72.002319 341.660706,70.153847 341.935028,68.600792 
	C343.933228,69.006752 345.931458,69.412712 347.959106,70.240044 
z"/>
<path fill="#F2F9FE" opacity="1.000000" stroke="none" 
	d="
M131.576385,83.603485 
	C130.167953,86.087471 129.139542,88.399651 127.649391,90.361038 
	C126.770416,91.517975 125.159798,92.119049 123.878220,92.970123 
	C123.254791,91.615479 122.535545,90.294250 122.046692,88.892662 
	C121.786095,88.145523 121.923752,87.259483 121.806389,84.963905 
	C120.115150,87.684174 119.215744,89.485199 117.969391,91.000923 
	C117.236526,91.892189 115.901917,92.880142 114.932861,92.791153 
	C114.209244,92.724709 113.253662,91.070526 113.070602,90.008080 
	C112.536751,86.909615 112.116859,83.752182 112.132965,80.620331 
	C112.138374,79.569427 113.589577,78.525955 114.379936,77.479080 
	C114.840645,77.729851 115.301353,77.980614 115.762054,78.231384 
	C115.951721,80.789581 116.141388,83.347778 116.342033,86.054047 
	C120.457024,84.687622 118.497124,77.545120 124.668846,78.108795 
	C124.835815,80.818382 124.994484,83.393295 125.159462,86.070702 
	C129.251251,84.723930 126.631256,76.640411 133.766190,78.306396 
	C133.057358,80.067200 132.409836,81.675713 131.576385,83.603485 
z"/>
<path fill="#EFF8FE" opacity="1.000000" stroke="none" 
	d="
M155.672562,81.799805 
	C156.310440,80.255577 156.996429,79.123825 157.682419,77.992073 
	C158.429794,79.014442 159.480148,79.939240 159.848740,81.083611 
	C160.321884,82.552673 160.247208,84.198196 160.420959,85.888489 
	C164.715378,84.666084 161.968689,76.223701 168.892929,78.376762 
	C164.593109,92.044998 158.263657,98.865417 151.089706,97.218445 
	C151.467087,96.314003 151.785355,94.738426 152.183502,94.717972 
	C159.039902,94.365784 156.917786,90.007477 156.152573,86.185173 
	C155.892090,84.884201 155.858139,83.537880 155.672562,81.799805 
z"/>
<path fill="#EEF7FE" opacity="1.000000" stroke="none" 
	d="
M146.038132,75.085449 
	C149.042801,73.582405 151.846512,72.410561 154.650223,71.238716 
	C155.061737,72.075554 155.473236,72.912392 155.884735,73.749229 
	C153.751953,74.861633 151.619171,75.974045 148.925507,77.378998 
	C150.699326,77.789146 152.000595,78.090019 153.605133,78.461029 
	C153.177841,79.444038 152.758194,81.035538 152.455154,81.013634 
	C147.002380,80.619537 147.363129,84.987175 146.325348,88.243256 
	C145.572769,90.604530 145.001862,93.097023 143.792343,95.212128 
	C143.054260,96.502785 141.259369,97.189087 139.939133,98.146835 
	C139.715805,97.805977 139.492493,97.465118 139.269165,97.124260 
	C141.458511,89.888390 143.647842,82.652519 146.038132,75.085449 
z"/>
<path fill="#EEF7FE" opacity="1.000000" stroke="none" 
	d="
M104.718277,89.250290 
	C105.387878,90.301384 106.173523,92.127632 105.817192,92.387398 
	C102.472870,94.825432 96.735779,92.176468 96.085899,88.057968 
	C95.333717,83.291229 99.407120,78.010490 104.244171,78.162796 
	C105.979401,78.217445 107.660896,79.979134 109.366913,80.961731 
	C108.360817,82.647469 107.680428,84.731476 106.251427,85.900124 
	C104.977158,86.942238 102.875198,86.972275 100.857323,88.360634 
	C102.006401,88.673340 103.155479,88.986046 104.718277,89.250290 
z"/>
<path fill="#EEF8FE" opacity="1.000000" stroke="none" 
	d="
M45.457016,85.480667 
	C46.617889,80.959526 49.238060,78.223656 53.519665,78.178528 
	C55.237137,78.160416 56.974003,79.982399 58.702042,80.966850 
	C57.672310,82.649895 56.974731,84.760185 55.517372,85.893181 
	C54.121384,86.978477 51.936409,87.048927 50.047421,88.631149 
	C51.956768,88.945633 53.866119,89.260117 55.775467,89.574608 
	C55.983360,90.032021 56.191250,90.489426 56.399139,90.946838 
	C54.772861,91.634392 53.159992,92.865311 51.517746,92.905838 
	C46.911716,93.019508 45.024113,90.291870 45.457016,85.480667 
z"/>
<path fill="#EFF8FE" opacity="1.000000" stroke="none" 
	d="
M17.985271,89.642319 
	C18.529957,87.326294 19.005308,85.394150 19.494810,83.465584 
	C20.721525,78.632500 23.408850,76.879982 28.086891,78.134094 
	C32.516602,79.321617 32.197556,82.538315 31.348166,86.090027 
	C29.742069,92.805908 29.820639,92.824699 25.783062,92.396309 
	C26.279514,89.806801 26.916962,87.256096 27.182571,84.667229 
	C27.272844,83.787354 26.425808,82.811302 26.007078,81.879204 
	C25.242065,82.531487 24.073208,83.043526 23.788721,83.862686 
	C22.976439,86.201607 22.724907,88.743996 21.827707,91.040253 
	C21.482588,91.923546 19.989563,92.358322 19.019569,92.997459 
	C18.653839,92.007576 18.288111,91.017700 17.985271,89.642319 
z"/>
<path fill="#F5FAFE" opacity="1.000000" stroke="none" 
	d="
M82.529633,88.583496 
	C81.402847,90.059891 80.651718,92.005699 79.554367,92.225868 
	C78.219795,92.493629 75.497307,91.577988 75.281792,90.704094 
	C74.309074,86.759735 74.010429,82.649132 73.426521,78.281387 
	C75.232521,78.281387 76.428413,78.281387 77.744133,78.281387 
	C77.967247,80.964539 78.168365,83.383095 78.382378,85.956787 
	C83.125412,85.075546 80.942146,76.592300 88.228203,78.395416 
	C86.315826,81.849998 84.533829,85.069046 82.529633,88.583496 
z"/>
<path fill="#F0F8FE" opacity="1.000000" stroke="none" 
	d="
M38.429893,74.173737 
	C39.569691,74.279015 40.580128,74.254707 40.989532,74.738754 
	C42.134438,76.092377 43.030762,77.656250 44.601830,79.995872 
	C42.556110,81.843468 36.486263,82.505363 39.103104,88.790443 
	C40.030754,89.059036 41.382504,89.450409 42.734249,89.841789 
	C42.906151,90.322044 43.078053,90.802292 43.249954,91.282539 
	C41.560570,91.847458 39.521774,93.275337 38.266861,92.767227 
	C36.550236,92.072166 34.095520,89.703583 34.291843,88.405396 
	C35.016003,83.616928 36.701931,78.973900 38.429893,74.173737 
z"/>
<path fill="#F0F8FE" opacity="1.000000" stroke="none" 
	d="
M15.310925,83.529755 
	C14.715341,86.028412 14.563288,88.300201 13.631511,90.186913 
	C12.960850,91.544914 11.250552,92.389473 10.003996,93.463058 
	C9.590970,93.076241 9.177943,92.689415 8.764917,92.302589 
	C10.074477,87.007431 11.218497,81.661522 12.815144,76.454391 
	C13.193380,75.220848 15.090753,74.453125 16.289331,73.471130 
	C16.677105,73.832901 17.064880,74.194679 17.452654,74.556458 
	C16.775326,77.416985 16.097998,80.277512 15.310925,83.529755 
z"/>
<path fill="#EDF7FE" opacity="1.000000" stroke="none" 
	d="
M68.670197,81.673607 
	C67.022316,84.311684 65.889008,87.016647 64.485931,89.573578 
	C63.692211,91.020020 62.455338,92.223282 60.971546,93.180046 
	C59.743855,81.115120 62.700932,77.211594 72.417229,78.660751 
	C70.941673,79.991821 70.006767,80.835175 68.670197,81.673607 
z"/>
<path fill="#EFF8FE" opacity="1.000000" stroke="none" 
	d="
M87.575989,91.908806 
	C88.400963,87.955925 88.990257,84.316841 90.115952,80.852036 
	C90.554848,79.501137 92.201317,78.542572 93.297760,77.405304 
	C93.779877,77.729897 94.261993,78.054497 94.744110,78.379097 
	C93.786705,82.663406 93.011536,87.004974 91.700424,91.178162 
	C91.470085,91.911324 88.993797,91.938866 87.575989,91.908806 
z"/>
<path fill="#F1F9FE" opacity="1.000000" stroke="none" 
	d="
M136.589386,92.757652 
	C135.285889,92.892204 134.340714,92.844933 132.742996,92.765022 
	C135.076920,87.508545 133.803589,81.231491 138.373093,77.591751 
	C139.126419,77.873260 139.879761,78.154770 140.633087,78.436279 
	C139.404633,83.149467 138.176163,87.862648 136.589386,92.757652 
z"/>
<path fill="#1F9CEF" opacity="0" stroke="none" 
	d="
M364.098328,89.001572 
	C362.194092,89.001564 360.736755,89.001564 359.119049,89.001564 
	C359.023529,84.422714 362.140930,83.439606 365.156525,83.098404 
	C369.008759,82.662537 371.271698,84.726334 371.395325,89.001579 
	C369.127075,89.001579 366.836151,89.001579 364.098328,89.001572 
z"/>
<path fill="#000000" opacity="0" stroke="none" 
	d="
M271.179443,86.614716 
	C277.216431,81.042877 281.942627,82.041809 283.464935,88.998421 
	C280.123871,88.998421 276.820251,89.134079 273.541656,88.907440 
	C272.671722,88.847313 271.878754,87.673683 271.179443,86.614716 
z"/>
</svg>