<?xml version="1.0" encoding="UTF-8"?>
<svg xmlns="http://www.w3.org/2000/svg" xmlns:xlink="http://www.w3.org/1999/xlink" width="4000pt" height="2000pt" viewBox="0 0 4000 2000" version="1.1">
<defs>
<clipPath id="clip1">
  <path d="M 1466 1030 L 1778 1030 L 1778 1384 L 1466 1384 Z M 1466 1030 "/>
</clipPath>
<clipPath id="clip2">
  <path d="M 1509.5 1383.960938 L 1469.589844 1190.46875 C 1455.808594 1123.648438 1494.730469 1057.21875 1559.75 1036.558594 C 1632.488281 1013.449219 1709.75 1056.050781 1729.019531 1129.910156 L 1777.988281 1317.578125 L 1509.5 1383.960938 "/>
</clipPath>
<linearGradient id="linear0" gradientUnits="userSpaceOnUse" x1="-0.169219" y1="0" x2="1.11708" y2="0" gradientTransform="matrix(-300.931,69.4755,-69.4755,-300.931,1757.84,1158.5)">
<stop offset="0" style="stop-color:rgb(37.646484%,69.018555%,88.626099%);stop-opacity:1;"/>
<stop offset="0.125" style="stop-color:rgb(37.646484%,69.018555%,88.626099%);stop-opacity:1;"/>
<stop offset="0.140625" style="stop-color:rgb(37.757874%,68.867493%,88.511658%);stop-opacity:1;"/>
<stop offset="0.148438" style="stop-color:rgb(37.966919%,68.586731%,88.298035%);stop-opacity:1;"/>
<stop offset="0.15625" style="stop-color:rgb(38.15918%,68.325806%,88.101196%);stop-opacity:1;"/>
<stop offset="0.164063" style="stop-color:rgb(38.352966%,68.066406%,87.904358%);stop-opacity:1;"/>
<stop offset="0.171875" style="stop-color:rgb(38.545227%,67.805481%,87.70752%);stop-opacity:1;"/>
<stop offset="0.179687" style="stop-color:rgb(38.739014%,67.546082%,87.510681%);stop-opacity:1;"/>
<stop offset="0.1875" style="stop-color:rgb(38.9328%,67.286682%,87.313843%);stop-opacity:1;"/>
<stop offset="0.195312" style="stop-color:rgb(39.125061%,67.025757%,87.117004%);stop-opacity:1;"/>
<stop offset="0.203125" style="stop-color:rgb(39.318848%,66.766357%,86.920166%);stop-opacity:1;"/>
<stop offset="0.210937" style="stop-color:rgb(39.511108%,66.505432%,86.721802%);stop-opacity:1;"/>
<stop offset="0.21875" style="stop-color:rgb(39.704895%,66.246033%,86.524963%);stop-opacity:1;"/>
<stop offset="0.226563" style="stop-color:rgb(39.897156%,65.985107%,86.328125%);stop-opacity:1;"/>
<stop offset="0.234375" style="stop-color:rgb(40.090942%,65.725708%,86.131287%);stop-opacity:1;"/>
<stop offset="0.242188" style="stop-color:rgb(40.283203%,65.464783%,85.934448%);stop-opacity:1;"/>
<stop offset="0.25" style="stop-color:rgb(40.47699%,65.205383%,85.73761%);stop-opacity:1;"/>
<stop offset="0.257813" style="stop-color:rgb(40.670776%,64.944458%,85.540771%);stop-opacity:1;"/>
<stop offset="0.265625" style="stop-color:rgb(40.863037%,64.685059%,85.342407%);stop-opacity:1;"/>
<stop offset="0.273438" style="stop-color:rgb(41.056824%,64.425659%,85.145569%);stop-opacity:1;"/>
<stop offset="0.28125" style="stop-color:rgb(41.249084%,64.164734%,84.94873%);stop-opacity:1;"/>
<stop offset="0.289062" style="stop-color:rgb(41.442871%,63.905334%,84.751892%);stop-opacity:1;"/>
<stop offset="0.296875" style="stop-color:rgb(41.635132%,63.644409%,84.555054%);stop-opacity:1;"/>
<stop offset="0.304688" style="stop-color:rgb(41.828918%,63.38501%,84.358215%);stop-opacity:1;"/>
<stop offset="0.3125" style="stop-color:rgb(42.021179%,63.124084%,84.161377%);stop-opacity:1;"/>
<stop offset="0.320313" style="stop-color:rgb(42.214966%,62.864685%,83.964539%);stop-opacity:1;"/>
<stop offset="0.328125" style="stop-color:rgb(42.407227%,62.60376%,83.766174%);stop-opacity:1;"/>
<stop offset="0.335938" style="stop-color:rgb(42.601013%,62.34436%,83.569336%);stop-opacity:1;"/>
<stop offset="0.34375" style="stop-color:rgb(42.7948%,62.083435%,83.372498%);stop-opacity:1;"/>
<stop offset="0.351563" style="stop-color:rgb(42.987061%,61.824036%,83.175659%);stop-opacity:1;"/>
<stop offset="0.359375" style="stop-color:rgb(43.180847%,61.56311%,82.978821%);stop-opacity:1;"/>
<stop offset="0.367188" style="stop-color:rgb(43.373108%,61.303711%,82.781982%);stop-opacity:1;"/>
<stop offset="0.375" style="stop-color:rgb(43.566895%,61.044312%,82.585144%);stop-opacity:1;"/>
<stop offset="0.382812" style="stop-color:rgb(43.759155%,60.783386%,82.38678%);stop-opacity:1;"/>
<stop offset="0.390625" style="stop-color:rgb(43.952942%,60.523987%,82.189941%);stop-opacity:1;"/>
<stop offset="0.398438" style="stop-color:rgb(44.145203%,60.263062%,81.993103%);stop-opacity:1;"/>
<stop offset="0.40625" style="stop-color:rgb(44.338989%,60.003662%,81.796265%);stop-opacity:1;"/>
<stop offset="0.414063" style="stop-color:rgb(44.532776%,59.742737%,81.599426%);stop-opacity:1;"/>
<stop offset="0.421875" style="stop-color:rgb(44.725037%,59.483337%,81.402588%);stop-opacity:1;"/>
<stop offset="0.429688" style="stop-color:rgb(44.918823%,59.222412%,81.20575%);stop-opacity:1;"/>
<stop offset="0.4375" style="stop-color:rgb(45.111084%,58.963013%,81.008911%);stop-opacity:1;"/>
<stop offset="0.445313" style="stop-color:rgb(45.304871%,58.702087%,80.810547%);stop-opacity:1;"/>
<stop offset="0.453125" style="stop-color:rgb(45.497131%,58.442688%,80.613708%);stop-opacity:1;"/>
<stop offset="0.460938" style="stop-color:rgb(45.690918%,58.183289%,80.41687%);stop-opacity:1;"/>
<stop offset="0.46875" style="stop-color:rgb(45.883179%,57.922363%,80.220032%);stop-opacity:1;"/>
<stop offset="0.476563" style="stop-color:rgb(46.076965%,57.662964%,80.023193%);stop-opacity:1;"/>
<stop offset="0.484375" style="stop-color:rgb(46.270752%,57.402039%,79.826355%);stop-opacity:1;"/>
<stop offset="0.492187" style="stop-color:rgb(46.463013%,57.142639%,79.629517%);stop-opacity:1;"/>
<stop offset="0.5" style="stop-color:rgb(46.656799%,56.881714%,79.431152%);stop-opacity:1;"/>
<stop offset="0.507813" style="stop-color:rgb(46.84906%,56.622314%,79.234314%);stop-opacity:1;"/>
<stop offset="0.515625" style="stop-color:rgb(47.042847%,56.361389%,79.037476%);stop-opacity:1;"/>
<stop offset="0.523438" style="stop-color:rgb(47.235107%,56.10199%,78.840637%);stop-opacity:1;"/>
<stop offset="0.53125" style="stop-color:rgb(47.428894%,55.841064%,78.643799%);stop-opacity:1;"/>
<stop offset="0.539062" style="stop-color:rgb(47.621155%,55.581665%,78.44696%);stop-opacity:1;"/>
<stop offset="0.546875" style="stop-color:rgb(47.814941%,55.322266%,78.250122%);stop-opacity:1;"/>
<stop offset="0.554688" style="stop-color:rgb(48.007202%,55.06134%,78.051758%);stop-opacity:1;"/>
<stop offset="0.5625" style="stop-color:rgb(48.200989%,54.801941%,77.854919%);stop-opacity:1;"/>
<stop offset="0.570313" style="stop-color:rgb(48.394775%,54.541016%,77.658081%);stop-opacity:1;"/>
<stop offset="0.578125" style="stop-color:rgb(48.587036%,54.281616%,77.461243%);stop-opacity:1;"/>
<stop offset="0.585938" style="stop-color:rgb(48.780823%,54.020691%,77.264404%);stop-opacity:1;"/>
<stop offset="0.59375" style="stop-color:rgb(48.973083%,53.761292%,77.067566%);stop-opacity:1;"/>
<stop offset="0.601562" style="stop-color:rgb(49.16687%,53.500366%,76.870728%);stop-opacity:1;"/>
<stop offset="0.609375" style="stop-color:rgb(49.359131%,53.240967%,76.673889%);stop-opacity:1;"/>
<stop offset="0.617187" style="stop-color:rgb(49.552917%,52.980042%,76.475525%);stop-opacity:1;"/>
<stop offset="0.625" style="stop-color:rgb(49.745178%,52.720642%,76.278687%);stop-opacity:1;"/>
<stop offset="0.632813" style="stop-color:rgb(49.938965%,52.461243%,76.081848%);stop-opacity:1;"/>
<stop offset="0.640625" style="stop-color:rgb(50.132751%,52.200317%,75.88501%);stop-opacity:1;"/>
<stop offset="0.648438" style="stop-color:rgb(50.325012%,51.940918%,75.688171%);stop-opacity:1;"/>
<stop offset="0.65625" style="stop-color:rgb(50.518799%,51.679993%,75.491333%);stop-opacity:1;"/>
<stop offset="0.664062" style="stop-color:rgb(50.71106%,51.420593%,75.294495%);stop-opacity:1;"/>
<stop offset="0.671875" style="stop-color:rgb(50.904846%,51.159668%,75.09613%);stop-opacity:1;"/>
<stop offset="0.679687" style="stop-color:rgb(51.097107%,50.900269%,74.899292%);stop-opacity:1;"/>
<stop offset="0.6875" style="stop-color:rgb(51.290894%,50.639343%,74.702454%);stop-opacity:1;"/>
<stop offset="0.695313" style="stop-color:rgb(51.483154%,50.379944%,74.505615%);stop-opacity:1;"/>
<stop offset="0.703125" style="stop-color:rgb(51.676941%,50.119019%,74.308777%);stop-opacity:1;"/>
<stop offset="0.710938" style="stop-color:rgb(51.870728%,49.859619%,74.111938%);stop-opacity:1;"/>
<stop offset="0.71875" style="stop-color:rgb(52.062988%,49.598694%,73.9151%);stop-opacity:1;"/>
<stop offset="0.726563" style="stop-color:rgb(52.256775%,49.339294%,73.718262%);stop-opacity:1;"/>
<stop offset="0.734375" style="stop-color:rgb(52.449036%,49.079895%,73.519897%);stop-opacity:1;"/>
<stop offset="0.742188" style="stop-color:rgb(52.642822%,48.81897%,73.323059%);stop-opacity:1;"/>
<stop offset="0.75" style="stop-color:rgb(52.835083%,48.55957%,73.126221%);stop-opacity:1;"/>
<stop offset="0.757812" style="stop-color:rgb(53.02887%,48.298645%,72.929382%);stop-opacity:1;"/>
<stop offset="0.765625" style="stop-color:rgb(53.22113%,48.039246%,72.732544%);stop-opacity:1;"/>
<stop offset="0.773438" style="stop-color:rgb(53.414917%,47.77832%,72.535706%);stop-opacity:1;"/>
<stop offset="0.78125" style="stop-color:rgb(53.607178%,47.518921%,72.338867%);stop-opacity:1;"/>
<stop offset="0.789063" style="stop-color:rgb(53.800964%,47.257996%,72.140503%);stop-opacity:1;"/>
<stop offset="0.796875" style="stop-color:rgb(53.994751%,46.998596%,71.943665%);stop-opacity:1;"/>
<stop offset="0.804688" style="stop-color:rgb(54.187012%,46.737671%,71.746826%);stop-opacity:1;"/>
<stop offset="0.8125" style="stop-color:rgb(54.380798%,46.478271%,71.549988%);stop-opacity:1;"/>
<stop offset="0.820313" style="stop-color:rgb(54.573059%,46.218872%,71.353149%);stop-opacity:1;"/>
<stop offset="0.828125" style="stop-color:rgb(54.766846%,45.957947%,71.156311%);stop-opacity:1;"/>
<stop offset="0.835938" style="stop-color:rgb(54.959106%,45.698547%,70.959473%);stop-opacity:1;"/>
<stop offset="0.84375" style="stop-color:rgb(55.152893%,45.437622%,70.762634%);stop-opacity:1;"/>
<stop offset="0.851563" style="stop-color:rgb(55.345154%,45.178223%,70.56427%);stop-opacity:1;"/>
<stop offset="0.859375" style="stop-color:rgb(55.53894%,44.917297%,70.367432%);stop-opacity:1;"/>
<stop offset="0.867188" style="stop-color:rgb(55.732727%,44.657898%,70.170593%);stop-opacity:1;"/>
<stop offset="0.875" style="stop-color:rgb(55.924988%,44.396973%,69.973755%);stop-opacity:1;"/>
<stop offset="0.882813" style="stop-color:rgb(56.118774%,44.137573%,69.776917%);stop-opacity:1;"/>
<stop offset="0.890625" style="stop-color:rgb(56.311035%,43.876648%,69.580078%);stop-opacity:1;"/>
<stop offset="0.898438" style="stop-color:rgb(56.504822%,43.617249%,69.38324%);stop-opacity:1;"/>
<stop offset="0.90625" style="stop-color:rgb(56.697083%,43.357849%,69.184875%);stop-opacity:1;"/>
<stop offset="0.9375" style="stop-color:rgb(56.828308%,43.182373%,69.052124%);stop-opacity:1;"/>
<stop offset="1" style="stop-color:rgb(56.861877%,43.136597%,69.018555%);stop-opacity:1;"/>
</linearGradient>
<clipPath id="clip3">
  <path d="M 1927 1101 L 2299 1101 L 2299 1457 L 1927 1457 Z M 1927 1101 "/>
</clipPath>
<clipPath id="clip4">
  <path d="M 1927.351563 1327.570313 L 2092.988281 1435.25 C 2150.191406 1472.441406 2226.230469 1460.410156 2269.160156 1407.390625 C 2317.199219 1348.070313 2305.679688 1260.601563 2243.929688 1215.738281 L 2087.011719 1101.738281 L 1927.351563 1327.570313 "/>
</clipPath>
<linearGradient id="linear1" gradientUnits="userSpaceOnUse" x1="-0.203418" y1="0" x2="1.081198" y2="0" gradientTransform="matrix(135.52,-353.041,353.041,135.52,2071.82,1445.5)">
<stop offset="0" style="stop-color:rgb(37.646484%,69.018555%,88.626099%);stop-opacity:1;"/>
<stop offset="0.125" style="stop-color:rgb(37.646484%,69.018555%,88.626099%);stop-opacity:1;"/>
<stop offset="0.15625" style="stop-color:rgb(37.646484%,69.018555%,88.626099%);stop-opacity:1;"/>
<stop offset="0.164063" style="stop-color:rgb(37.716675%,68.92395%,88.554382%);stop-opacity:1;"/>
<stop offset="0.171875" style="stop-color:rgb(37.882996%,68.69812%,88.383484%);stop-opacity:1;"/>
<stop offset="0.179688" style="stop-color:rgb(38.076782%,68.438721%,88.186646%);stop-opacity:1;"/>
<stop offset="0.1875" style="stop-color:rgb(38.269043%,68.179321%,87.989807%);stop-opacity:1;"/>
<stop offset="0.195313" style="stop-color:rgb(38.461304%,67.919922%,87.792969%);stop-opacity:1;"/>
<stop offset="0.203125" style="stop-color:rgb(38.65509%,67.660522%,87.59613%);stop-opacity:1;"/>
<stop offset="0.210938" style="stop-color:rgb(38.847351%,67.399597%,87.399292%);stop-opacity:1;"/>
<stop offset="0.21875" style="stop-color:rgb(39.041138%,67.140198%,87.202454%);stop-opacity:1;"/>
<stop offset="0.226563" style="stop-color:rgb(39.233398%,66.880798%,87.005615%);stop-opacity:1;"/>
<stop offset="0.234375" style="stop-color:rgb(39.425659%,66.621399%,86.808777%);stop-opacity:1;"/>
<stop offset="0.242188" style="stop-color:rgb(39.619446%,66.360474%,86.611938%);stop-opacity:1;"/>
<stop offset="0.25" style="stop-color:rgb(39.811707%,66.101074%,86.4151%);stop-opacity:1;"/>
<stop offset="0.257813" style="stop-color:rgb(40.005493%,65.841675%,86.219788%);stop-opacity:1;"/>
<stop offset="0.265625" style="stop-color:rgb(40.197754%,65.582275%,86.022949%);stop-opacity:1;"/>
<stop offset="0.273438" style="stop-color:rgb(40.390015%,65.32135%,85.826111%);stop-opacity:1;"/>
<stop offset="0.28125" style="stop-color:rgb(40.583801%,65.061951%,85.629272%);stop-opacity:1;"/>
<stop offset="0.289063" style="stop-color:rgb(40.776062%,64.802551%,85.432434%);stop-opacity:1;"/>
<stop offset="0.296875" style="stop-color:rgb(40.968323%,64.543152%,85.235596%);stop-opacity:1;"/>
<stop offset="0.304688" style="stop-color:rgb(41.162109%,64.282227%,85.038757%);stop-opacity:1;"/>
<stop offset="0.3125" style="stop-color:rgb(41.35437%,64.022827%,84.841919%);stop-opacity:1;"/>
<stop offset="0.320313" style="stop-color:rgb(41.548157%,63.763428%,84.645081%);stop-opacity:1;"/>
<stop offset="0.328125" style="stop-color:rgb(41.740417%,63.504028%,84.448242%);stop-opacity:1;"/>
<stop offset="0.335938" style="stop-color:rgb(41.932678%,63.244629%,84.251404%);stop-opacity:1;"/>
<stop offset="0.34375" style="stop-color:rgb(42.126465%,62.983704%,84.054565%);stop-opacity:1;"/>
<stop offset="0.351563" style="stop-color:rgb(42.318726%,62.724304%,83.857727%);stop-opacity:1;"/>
<stop offset="0.359375" style="stop-color:rgb(42.512512%,62.464905%,83.660889%);stop-opacity:1;"/>
<stop offset="0.367188" style="stop-color:rgb(42.704773%,62.205505%,83.46405%);stop-opacity:1;"/>
<stop offset="0.375" style="stop-color:rgb(42.897034%,61.94458%,83.267212%);stop-opacity:1;"/>
<stop offset="0.382813" style="stop-color:rgb(43.09082%,61.685181%,83.070374%);stop-opacity:1;"/>
<stop offset="0.390625" style="stop-color:rgb(43.283081%,61.425781%,82.873535%);stop-opacity:1;"/>
<stop offset="0.398438" style="stop-color:rgb(43.476868%,61.166382%,82.676697%);stop-opacity:1;"/>
<stop offset="0.40625" style="stop-color:rgb(43.669128%,60.905457%,82.479858%);stop-opacity:1;"/>
<stop offset="0.414063" style="stop-color:rgb(43.861389%,60.646057%,82.28302%);stop-opacity:1;"/>
<stop offset="0.421875" style="stop-color:rgb(44.055176%,60.386658%,82.086182%);stop-opacity:1;"/>
<stop offset="0.429688" style="stop-color:rgb(44.247437%,60.127258%,81.889343%);stop-opacity:1;"/>
<stop offset="0.4375" style="stop-color:rgb(44.439697%,59.867859%,81.692505%);stop-opacity:1;"/>
<stop offset="0.445313" style="stop-color:rgb(44.633484%,59.606934%,81.495667%);stop-opacity:1;"/>
<stop offset="0.453125" style="stop-color:rgb(44.825745%,59.347534%,81.298828%);stop-opacity:1;"/>
<stop offset="0.460938" style="stop-color:rgb(45.019531%,59.088135%,81.10199%);stop-opacity:1;"/>
<stop offset="0.46875" style="stop-color:rgb(45.211792%,58.828735%,80.905151%);stop-opacity:1;"/>
<stop offset="0.476563" style="stop-color:rgb(45.404053%,58.56781%,80.708313%);stop-opacity:1;"/>
<stop offset="0.484375" style="stop-color:rgb(45.597839%,58.308411%,80.513%);stop-opacity:1;"/>
<stop offset="0.492188" style="stop-color:rgb(45.7901%,58.049011%,80.316162%);stop-opacity:1;"/>
<stop offset="0.5" style="stop-color:rgb(45.983887%,57.789612%,80.119324%);stop-opacity:1;"/>
<stop offset="0.507813" style="stop-color:rgb(46.176147%,57.528687%,79.922485%);stop-opacity:1;"/>
<stop offset="0.515625" style="stop-color:rgb(46.368408%,57.269287%,79.725647%);stop-opacity:1;"/>
<stop offset="0.523438" style="stop-color:rgb(46.562195%,57.009888%,79.528809%);stop-opacity:1;"/>
<stop offset="0.53125" style="stop-color:rgb(46.754456%,56.750488%,79.33197%);stop-opacity:1;"/>
<stop offset="0.539063" style="stop-color:rgb(46.946716%,56.489563%,79.135132%);stop-opacity:1;"/>
<stop offset="0.546875" style="stop-color:rgb(47.140503%,56.230164%,78.938293%);stop-opacity:1;"/>
<stop offset="0.554688" style="stop-color:rgb(47.332764%,55.970764%,78.741455%);stop-opacity:1;"/>
<stop offset="0.5625" style="stop-color:rgb(47.52655%,55.711365%,78.544617%);stop-opacity:1;"/>
<stop offset="0.570313" style="stop-color:rgb(47.718811%,55.451965%,78.347778%);stop-opacity:1;"/>
<stop offset="0.578125" style="stop-color:rgb(47.911072%,55.19104%,78.15094%);stop-opacity:1;"/>
<stop offset="0.585938" style="stop-color:rgb(48.104858%,54.931641%,77.954102%);stop-opacity:1;"/>
<stop offset="0.59375" style="stop-color:rgb(48.297119%,54.672241%,77.757263%);stop-opacity:1;"/>
<stop offset="0.601563" style="stop-color:rgb(48.490906%,54.412842%,77.560425%);stop-opacity:1;"/>
<stop offset="0.609375" style="stop-color:rgb(48.683167%,54.151917%,77.363586%);stop-opacity:1;"/>
<stop offset="0.617188" style="stop-color:rgb(48.875427%,53.892517%,77.166748%);stop-opacity:1;"/>
<stop offset="0.625" style="stop-color:rgb(49.069214%,53.633118%,76.96991%);stop-opacity:1;"/>
<stop offset="0.632813" style="stop-color:rgb(49.261475%,53.373718%,76.773071%);stop-opacity:1;"/>
<stop offset="0.640625" style="stop-color:rgb(49.453735%,53.112793%,76.576233%);stop-opacity:1;"/>
<stop offset="0.648438" style="stop-color:rgb(49.647522%,52.853394%,76.379395%);stop-opacity:1;"/>
<stop offset="0.65625" style="stop-color:rgb(49.839783%,52.593994%,76.182556%);stop-opacity:1;"/>
<stop offset="0.664063" style="stop-color:rgb(50.033569%,52.334595%,75.985718%);stop-opacity:1;"/>
<stop offset="0.671875" style="stop-color:rgb(50.22583%,52.073669%,75.788879%);stop-opacity:1;"/>
<stop offset="0.679688" style="stop-color:rgb(50.418091%,51.81427%,75.592041%);stop-opacity:1;"/>
<stop offset="0.6875" style="stop-color:rgb(50.611877%,51.554871%,75.395203%);stop-opacity:1;"/>
<stop offset="0.695313" style="stop-color:rgb(50.804138%,51.295471%,75.198364%);stop-opacity:1;"/>
<stop offset="0.703125" style="stop-color:rgb(50.997925%,51.036072%,75.001526%);stop-opacity:1;"/>
<stop offset="0.710938" style="stop-color:rgb(51.190186%,50.775146%,74.806213%);stop-opacity:1;"/>
<stop offset="0.71875" style="stop-color:rgb(51.382446%,50.515747%,74.609375%);stop-opacity:1;"/>
<stop offset="0.726563" style="stop-color:rgb(51.576233%,50.256348%,74.412537%);stop-opacity:1;"/>
<stop offset="0.734375" style="stop-color:rgb(51.768494%,49.996948%,74.215698%);stop-opacity:1;"/>
<stop offset="0.742188" style="stop-color:rgb(51.960754%,49.736023%,74.01886%);stop-opacity:1;"/>
<stop offset="0.75" style="stop-color:rgb(52.154541%,49.476624%,73.822021%);stop-opacity:1;"/>
<stop offset="0.757813" style="stop-color:rgb(52.346802%,49.217224%,73.625183%);stop-opacity:1;"/>
<stop offset="0.765625" style="stop-color:rgb(52.540588%,48.957825%,73.428345%);stop-opacity:1;"/>
<stop offset="0.773438" style="stop-color:rgb(52.732849%,48.696899%,73.231506%);stop-opacity:1;"/>
<stop offset="0.78125" style="stop-color:rgb(52.92511%,48.4375%,73.034668%);stop-opacity:1;"/>
<stop offset="0.789063" style="stop-color:rgb(53.118896%,48.178101%,72.83783%);stop-opacity:1;"/>
<stop offset="0.796875" style="stop-color:rgb(53.311157%,47.918701%,72.640991%);stop-opacity:1;"/>
<stop offset="0.804688" style="stop-color:rgb(53.504944%,47.659302%,72.444153%);stop-opacity:1;"/>
<stop offset="0.8125" style="stop-color:rgb(53.697205%,47.398376%,72.247314%);stop-opacity:1;"/>
<stop offset="0.820313" style="stop-color:rgb(53.889465%,47.138977%,72.050476%);stop-opacity:1;"/>
<stop offset="0.828125" style="stop-color:rgb(54.083252%,46.879578%,71.853638%);stop-opacity:1;"/>
<stop offset="0.835938" style="stop-color:rgb(54.275513%,46.620178%,71.656799%);stop-opacity:1;"/>
<stop offset="0.84375" style="stop-color:rgb(54.467773%,46.359253%,71.459961%);stop-opacity:1;"/>
<stop offset="0.851563" style="stop-color:rgb(54.66156%,46.099854%,71.263123%);stop-opacity:1;"/>
<stop offset="0.859375" style="stop-color:rgb(54.853821%,45.840454%,71.066284%);stop-opacity:1;"/>
<stop offset="0.867188" style="stop-color:rgb(55.047607%,45.581055%,70.869446%);stop-opacity:1;"/>
<stop offset="0.875" style="stop-color:rgb(55.239868%,45.320129%,70.672607%);stop-opacity:1;"/>
<stop offset="0.882813" style="stop-color:rgb(55.432129%,45.06073%,70.475769%);stop-opacity:1;"/>
<stop offset="0.890625" style="stop-color:rgb(55.625916%,44.801331%,70.278931%);stop-opacity:1;"/>
<stop offset="0.898438" style="stop-color:rgb(55.818176%,44.541931%,70.082092%);stop-opacity:1;"/>
<stop offset="0.90625" style="stop-color:rgb(56.011963%,44.281006%,69.885254%);stop-opacity:1;"/>
<stop offset="0.914063" style="stop-color:rgb(56.204224%,44.021606%,69.688416%);stop-opacity:1;"/>
<stop offset="0.921875" style="stop-color:rgb(56.396484%,43.762207%,69.491577%);stop-opacity:1;"/>
<stop offset="0.929688" style="stop-color:rgb(56.590271%,43.502808%,69.294739%);stop-opacity:1;"/>
<stop offset="0.9375" style="stop-color:rgb(56.773376%,43.254089%,69.107056%);stop-opacity:1;"/>
<stop offset="1" style="stop-color:rgb(56.861877%,43.136597%,69.018555%);stop-opacity:1;"/>
</linearGradient>
</defs>
<g id="surface1">
<rect x="0" y="0" width="4000" height="2000" style="fill:rgb(100%,100%,100%);fill-opacity:1;stroke:none;"/>
<path style=" stroke:none;fill-rule:evenodd;fill:rgb(97.65625%,97.65625%,97.65625%);fill-opacity:1;" d="M 843.066406 1787.679688 L 534.554688 1787.679688 L 534.554688 221.300781 L 843.066406 221.300781 L 843.066406 1787.679688 "/>
<path style=" stroke:none;fill-rule:evenodd;fill:rgb(97.65625%,97.65625%,97.65625%);fill-opacity:1;" d="M 1340.121094 1792.160156 L 1031.609375 1792.160156 L 1031.609375 225.789063 L 1340.121094 225.789063 L 1340.121094 1792.160156 "/>
<path style=" stroke:none;fill-rule:evenodd;fill:rgb(97.65625%,97.65625%,97.65625%);fill-opacity:1;" d="M 2408.5 1774.210938 L 2099.980469 1774.210938 L 2099.980469 207.828125 L 2408.5 207.828125 L 2408.5 1774.210938 "/>
<path style=" stroke:none;fill-rule:evenodd;fill:rgb(97.65625%,97.65625%,97.65625%);fill-opacity:1;" d="M 1922.871094 1778.699219 L 1614.359375 1778.699219 L 1614.359375 212.320313 L 1922.871094 212.320313 L 1922.871094 1778.699219 "/>
<path style=" stroke:none;fill-rule:evenodd;fill:rgb(97.65625%,97.65625%,97.65625%);fill-opacity:1;" d="M 2905.550781 1778.699219 L 2597.03125 1778.699219 L 2597.03125 212.320313 L 2905.550781 212.320313 L 2905.550781 1778.699219 "/>
<path style=" stroke:none;fill-rule:evenodd;fill:rgb(97.65625%,97.65625%,97.65625%);fill-opacity:1;" d="M 3465.449219 1778.699219 L 3156.929688 1778.699219 L 3156.929688 212.320313 L 3465.449219 212.320313 L 3465.449219 1778.699219 "/>
<path style=" stroke:none;fill-rule:evenodd;fill:rgb(94.139099%,94.139099%,94.139099%);fill-opacity:1;" d="M 1739.921875 808.058594 L 1720.839844 808.058594 C 1707.761719 808.058594 1697.160156 818.671875 1697.160156 831.738281 L 1697.160156 870.109375 C 1697.160156 883.179688 1686.558594 893.789063 1673.480469 893.789063 L 1557.25 893.789063 C 1544.171875 893.789063 1533.570313 883.179688 1533.570313 870.109375 L 1533.570313 831.738281 C 1533.570313 818.671875 1522.96875 808.058594 1509.890625 808.058594 L 1297.929688 808.058594 C 1284.851563 808.058594 1274.25 797.460938 1274.25 784.390625 L 1274.25 708.289063 C 1274.25 703.480469 1275.71875 698.789063 1278.449219 694.828125 L 1479.359375 403.949219 C 1483.78125 397.550781 1491.070313 393.730469 1498.851563 393.730469 L 1615.121094 393.730469 C 1634.019531 393.730469 1645.300781 414.78125 1634.839844 430.519531 L 1495.171875 640.539063 C 1484.710938 656.28125 1495.988281 677.328125 1514.890625 677.328125 C 1527.96875 677.328125 1538.570313 666.730469 1538.570313 653.648438 L 1538.570313 624.570313 C 1538.570313 611.488281 1549.171875 600.890625 1562.25 600.890625 L 1673.480469 600.890625 C 1686.558594 600.890625 1697.160156 611.488281 1697.160156 624.570313 L 1697.160156 653.648438 C 1697.160156 666.730469 1707.761719 677.328125 1720.839844 677.328125 L 1739.921875 677.328125 C 1753 677.328125 1763.601563 687.929688 1763.601563 701.011719 L 1763.601563 784.390625 C 1763.601563 797.460938 1753 808.058594 1739.921875 808.058594 "/>
<path style=" stroke:none;fill-rule:evenodd;fill:rgb(94.139099%,94.139099%,94.139099%);fill-opacity:1;" d="M 2070.769531 643.761719 C 2070.769531 559.460938 2051.71875 517.320313 2013.628906 517.320313 C 1975.511719 517.320313 1956.46875 559.460938 1956.46875 643.761719 C 1956.46875 728.050781 1975.511719 770.199219 2013.628906 770.199219 C 2051.71875 770.199219 2070.769531 728.050781 2070.769531 643.761719 Z M 1896.109375 874.140625 C 1862.050781 853.421875 1835.390625 823.421875 1816.101563 784.128906 C 1796.808594 744.839844 1787.171875 698.050781 1787.171875 643.761719 C 1787.171875 589.460938 1796.808594 542.671875 1816.101563 503.378906 C 1835.390625 464.089844 1862.050781 434.089844 1896.109375 413.371094 C 1930.148438 392.648438 1969.328125 382.300781 2013.628906 382.300781 C 2057.910156 382.300781 2097.078125 392.648438 2131.128906 413.371094 C 2165.179688 434.089844 2191.859375 464.089844 2211.148438 503.378906 C 2230.441406 542.671875 2240.078125 589.460938 2240.078125 643.761719 C 2240.078125 698.050781 2230.441406 744.839844 2211.148438 784.128906 C 2191.859375 823.421875 2165.179688 853.421875 2131.128906 874.140625 C 2097.078125 894.859375 2057.910156 905.21875 2013.628906 905.21875 C 1969.328125 905.21875 1930.148438 894.859375 1896.109375 874.140625 "/>
<path style=" stroke:none;fill-rule:evenodd;fill:rgb(94.139099%,94.139099%,94.139099%);fill-opacity:1;" d="M 2742.878906 808.058594 L 2723.800781 808.058594 C 2710.730469 808.058594 2700.121094 818.671875 2700.121094 831.738281 L 2700.121094 870.109375 C 2700.121094 883.179688 2689.519531 893.789063 2676.441406 893.789063 L 2560.210938 893.789063 C 2547.128906 893.789063 2536.53125 883.179688 2536.53125 870.109375 L 2536.53125 831.738281 C 2536.53125 818.671875 2525.929688 808.058594 2512.851563 808.058594 L 2300.898438 808.058594 C 2287.820313 808.058594 2277.21875 797.460938 2277.21875 784.390625 L 2277.21875 708.289063 C 2277.21875 703.480469 2278.679688 698.789063 2281.410156 694.828125 L 2482.320313 403.949219 C 2486.75 397.550781 2494.03125 393.730469 2501.808594 393.730469 L 2618.078125 393.730469 C 2636.980469 393.730469 2648.261719 414.78125 2637.800781 430.519531 L 2498.140625 640.539063 C 2487.671875 656.28125 2498.949219 677.328125 2517.851563 677.328125 C 2530.929688 677.328125 2541.53125 666.730469 2541.53125 653.648438 L 2541.53125 624.570313 C 2541.53125 611.488281 2552.128906 600.890625 2565.210938 600.890625 L 2676.441406 600.890625 C 2689.519531 600.890625 2700.121094 611.488281 2700.121094 624.570313 L 2700.121094 653.648438 C 2700.121094 666.730469 2710.730469 677.328125 2723.800781 677.328125 L 2742.878906 677.328125 C 2755.960938 677.328125 2766.558594 687.929688 2766.558594 701.011719 L 2766.558594 784.390625 C 2766.558594 797.460938 2755.960938 808.058594 2742.878906 808.058594 "/>
<path style=" stroke:none;fill-rule:evenodd;fill:rgb(76.171875%,76.171875%,98.046875%);fill-opacity:1;" d="M 1699.109375 805.511719 L 1680.03125 805.511719 C 1666.949219 805.511719 1656.351563 816.109375 1656.351563 829.191406 L 1656.351563 867.558594 C 1656.351563 880.628906 1645.75 891.230469 1632.671875 891.230469 L 1516.429688 891.230469 C 1503.359375 891.230469 1492.761719 880.628906 1492.761719 867.558594 L 1492.761719 829.191406 C 1492.761719 816.109375 1482.148438 805.511719 1469.078125 805.511719 L 1257.121094 805.511719 C 1244.039063 805.511719 1233.441406 794.910156 1233.441406 781.828125 L 1233.441406 705.738281 C 1233.441406 700.929688 1234.898438 696.238281 1237.628906 692.28125 L 1438.550781 401.398438 C 1442.96875 395 1450.25 391.179688 1458.03125 391.179688 L 1574.308594 391.179688 C 1593.210938 391.179688 1604.488281 412.230469 1594.019531 427.96875 L 1454.359375 637.988281 C 1443.898438 653.730469 1455.179688 674.78125 1474.078125 674.78125 C 1487.160156 674.78125 1497.761719 664.179688 1497.761719 651.101563 L 1497.761719 622.019531 C 1497.761719 608.941406 1508.359375 598.339844 1521.441406 598.339844 L 1632.671875 598.339844 C 1645.75 598.339844 1656.351563 608.941406 1656.351563 622.019531 L 1656.351563 651.101563 C 1656.351563 664.179688 1666.949219 674.78125 1680.03125 674.78125 L 1699.109375 674.78125 C 1712.179688 674.78125 1722.789063 685.378906 1722.789063 698.460938 L 1722.789063 781.828125 C 1722.789063 794.910156 1712.179688 805.511719 1699.109375 805.511719 "/>
<path style=" stroke:none;fill-rule:evenodd;fill:rgb(76.171875%,76.171875%,98.046875%);fill-opacity:1;" d="M 2029.960938 641.210938 C 2029.960938 556.910156 2010.910156 514.761719 1972.808594 514.761719 C 1934.699219 514.761719 1915.660156 556.910156 1915.660156 641.210938 C 1915.660156 725.5 1934.699219 767.648438 1972.808594 767.648438 C 2010.910156 767.648438 2029.960938 725.5 2029.960938 641.210938 Z M 1855.300781 871.589844 C 1821.238281 850.871094 1794.570313 820.871094 1775.28125 781.578125 C 1756 742.289063 1746.351563 695.5 1746.351563 641.210938 C 1746.351563 586.910156 1756 540.121094 1775.28125 500.828125 C 1794.570313 461.539063 1821.238281 431.539063 1855.300781 410.820313 C 1889.339844 390.101563 1928.519531 379.75 1972.808594 379.75 C 2017.101563 379.75 2056.261719 390.101563 2090.320313 410.820313 C 2124.371094 431.539063 2151.039063 461.539063 2170.328125 500.828125 C 2189.621094 540.121094 2199.269531 586.910156 2199.269531 641.210938 C 2199.269531 695.5 2189.621094 742.289063 2170.328125 781.578125 C 2151.039063 820.871094 2124.371094 850.871094 2090.320313 871.589844 C 2056.261719 892.308594 2017.101563 902.671875 1972.808594 902.671875 C 1928.519531 902.671875 1889.339844 892.308594 1855.300781 871.589844 "/>
<path style=" stroke:none;fill-rule:evenodd;fill:rgb(76.171875%,76.171875%,98.046875%);fill-opacity:1;" d="M 2702.070313 805.511719 L 2682.988281 805.511719 C 2669.910156 805.511719 2659.308594 816.109375 2659.308594 829.191406 L 2659.308594 867.558594 C 2659.308594 880.628906 2648.710938 891.230469 2635.628906 891.230469 L 2519.398438 891.230469 C 2506.320313 891.230469 2495.71875 880.628906 2495.71875 867.558594 L 2495.71875 829.191406 C 2495.71875 816.109375 2485.121094 805.511719 2472.039063 805.511719 L 2260.078125 805.511719 C 2247.011719 805.511719 2236.410156 794.910156 2236.410156 781.828125 L 2236.410156 705.738281 C 2236.410156 700.929688 2237.871094 696.238281 2240.601563 692.28125 L 2441.511719 401.398438 C 2445.929688 395 2453.21875 391.179688 2461 391.179688 L 2577.269531 391.179688 C 2596.171875 391.179688 2607.449219 412.230469 2596.980469 427.96875 L 2457.320313 637.988281 C 2446.859375 653.730469 2458.140625 674.78125 2477.039063 674.78125 C 2490.121094 674.78125 2500.71875 664.179688 2500.71875 651.101563 L 2500.71875 622.019531 C 2500.71875 608.941406 2511.320313 598.339844 2524.398438 598.339844 L 2635.628906 598.339844 C 2648.710938 598.339844 2659.308594 608.941406 2659.308594 622.019531 L 2659.308594 651.101563 C 2659.308594 664.179688 2669.910156 674.78125 2682.988281 674.78125 L 2702.070313 674.78125 C 2715.148438 674.78125 2725.75 685.378906 2725.75 698.460938 L 2725.75 781.828125 C 2725.75 794.910156 2715.148438 805.511719 2702.070313 805.511719 "/>
<path style=" stroke:none;fill-rule:evenodd;fill:rgb(26.660156%,18.431091%,52.539063%);fill-opacity:1;" d="M 875.777344 1198.75 C 949.03125 1198.75 1009.621094 1175.25 1059.449219 1127.839844 C 1119.058594 1071.121094 1153.558594 990.5 1186.929688 912.53125 C 1224.640625 824.398438 1260.261719 741.160156 1325.308594 720.339844 C 1353.96875 711.171875 1380.050781 714.25 1405.011719 729.78125 C 1514.78125 798.089844 1556.378906 1070.039063 1556.789063 1072.78125 L 1593.878906 1067.261719 C 1592.109375 1055.378906 1549.160156 775.320313 1424.820313 697.949219 C 1390.441406 676.539063 1353.109375 672.058594 1313.878906 684.621094 C 1232.511719 710.671875 1193.621094 801.558594 1152.449219 897.78125 C 1088.460938 1047.300781 1022.308594 1201.921875 792.039063 1151.378906 L 680.640625 1115.339844 C 670.789063 1112.160156 660.222656 1117.558594 657.035156 1127.410156 C 653.847656 1137.261719 659.257813 1147.839844 669.109375 1151.019531 L 783.074219 1187.808594 C 816.023438 1195.101563 846.886719 1198.75 875.777344 1198.75 "/>
<g clip-path="url(#clip1)" clip-rule="nonzero">
<g clip-path="url(#clip2)" clip-rule="evenodd">
<path style=" stroke:none;fill-rule:nonzero;fill:url(#linear0);" d="M 1859.199219 1365.210938 L 1761.6875 942.832031 L 1374.597656 1032.199219 L 1472.113281 1454.578125 Z M 1859.199219 1365.210938 "/>
</g>
</g>
<path style=" stroke:none;fill-rule:evenodd;fill:rgb(56.834412%,52.539063%,86.71875%);fill-opacity:1;" d="M 1509.578125 1389.078125 C 1513.871094 1406.890625 1578.21875 1406.660156 1653.300781 1388.570313 C 1728.390625 1370.488281 1785.78125 1341.390625 1781.488281 1323.589844 C 1777.199219 1305.78125 1712.851563 1306.011719 1637.769531 1324.101563 C 1562.691406 1342.179688 1505.300781 1371.28125 1509.578125 1389.078125 "/>
<path style=" stroke:none;fill-rule:evenodd;fill:rgb(26.660156%,18.431091%,52.539063%);fill-opacity:1;" d="M 1671.710938 1336.589844 C 1670.628906 1342.589844 1681.371094 1349.550781 1695.699219 1352.121094 C 1710.03125 1354.699219 1722.519531 1351.910156 1723.589844 1345.898438 C 1724.671875 1339.890625 1713.929688 1332.941406 1699.601563 1330.359375 C 1685.28125 1327.789063 1672.789063 1330.578125 1671.710938 1336.589844 "/>
<path style=" stroke:none;fill-rule:evenodd;fill:rgb(26.660156%,18.431091%,52.539063%);fill-opacity:1;" d="M 1577.089844 1365.601563 C 1576.011719 1371.609375 1586.75 1378.570313 1601.078125 1381.140625 C 1615.410156 1383.710938 1627.898438 1380.921875 1628.980469 1374.921875 C 1630.050781 1368.910156 1619.308594 1361.949219 1604.980469 1359.378906 C 1590.660156 1356.808594 1578.171875 1359.589844 1577.089844 1365.601563 "/>
<path style=" stroke:none;fill-rule:evenodd;fill:rgb(73.242188%,82.03125%,96.09375%);fill-opacity:1;" d="M 1629.738281 1059.238281 C 1629.738281 1059.238281 1687.640625 1080.300781 1706.058594 1140.820313 C 1724.480469 1201.351563 1740.269531 1278.980469 1740.269531 1278.980469 L 1687.640625 1280.300781 L 1629.738281 1059.238281 "/>
<path style=" stroke:none;fill-rule:evenodd;fill:rgb(26.660156%,18.431091%,52.539063%);fill-opacity:1;" d="M 1578.761719 990.660156 L 1550.800781 1039.511719 L 1587.640625 1030.949219 Z M 1578.761719 990.660156 "/>
<path style=" stroke:none;fill-rule:evenodd;fill:rgb(26.660156%,18.431091%,52.539063%);fill-opacity:1;" d="M 2257.371094 1360.550781 C 2257.359375 1360.550781 2257.359375 1360.550781 2257.359375 1360.550781 L 2248.570313 1376.460938 Z M 3268.261719 939.558594 L 3253.351563 972.710938 C 3250.75 971.539063 3189.191406 942.980469 3132.671875 842.378906 C 3116.328125 813.300781 3091.269531 779.28125 3064.679688 782.421875 C 3045.609375 784.671875 2995.03125 811.761719 2937.511719 1014.191406 C 2874.789063 1234.949219 2740.640625 1379.199219 2538.789063 1442.910156 C 2408.148438 1484.148438 2246.589844 1396.128906 2239.78125 1392.359375 L 2257.371094 1360.550781 C 2259.398438 1361.671875 2412.378906 1444.699219 2527.851563 1408.25 C 2717.308594 1348.441406 2843.378906 1212.519531 2902.550781 1004.261719 C 2949.890625 837.640625 3001.53125 753.269531 3060.421875 746.320313 C 3097.730469 741.910156 3132.699219 768.25 3164.359375 824.570313 C 3215.089844 914.859375 3267.730469 939.320313 3268.261719 939.558594 "/>
<path style=" stroke:none;fill-rule:evenodd;fill:rgb(26.660156%,18.431091%,52.539063%);fill-opacity:1;" d="M 1920.058594 1228.289063 L 2015.808594 1297.679688 C 2023.808594 1303.46875 2025.601563 1314.660156 2019.800781 1322.660156 C 2014 1330.660156 2002.808594 1332.449219 1994.808594 1326.648438 L 1899.070313 1257.269531 C 1891.070313 1251.46875 1889.28125 1240.289063 1895.078125 1232.289063 C 1900.878906 1224.28125 1912.058594 1222.5 1920.058594 1228.289063 "/>
<path style=" stroke:none;fill-rule:evenodd;fill:rgb(26.660156%,18.431091%,52.539063%);fill-opacity:1;" d="M 1993.921875 1122.011719 L 2089.671875 1191.390625 C 2097.671875 1197.191406 2099.460938 1208.378906 2093.660156 1216.378906 C 2087.859375 1224.378906 2076.679688 1226.171875 2068.679688 1220.371094 L 1972.929688 1150.988281 C 1964.929688 1145.191406 1963.140625 1134 1968.941406 1126 C 1974.738281 1118 1985.921875 1116.210938 1993.921875 1122.011719 "/>
<path style=" stroke:none;fill-rule:evenodd;fill:rgb(26.660156%,18.431091%,52.539063%);fill-opacity:1;" d="M 2328.929688 1398.109375 L 2269.5 1406.96875 L 2285.949219 1373.839844 L 2342.128906 1395.96875 L 2328.929688 1398.109375 "/>
<g clip-path="url(#clip3)" clip-rule="nonzero">
<g clip-path="url(#clip4)" clip-rule="evenodd">
<path style=" stroke:none;fill-rule:nonzero;fill:url(#linear1);" d="M 1803.328125 1424.832031 L 2267.132813 1602.871094 L 2441.222656 1149.347656 L 1977.417969 971.308594 Z M 1803.328125 1424.832031 "/>
</g>
</g>
<path style=" stroke:none;fill-rule:evenodd;fill:rgb(73.242188%,82.03125%,96.09375%);fill-opacity:1;" d="M 1982.890625 1335.460938 L 2021.019531 1283.859375 L 2216.660156 1424.78125 C 2216.660156 1424.78125 2169.769531 1448.140625 2115.78125 1421.898438 C 2061.800781 1395.660156 1982.890625 1335.460938 1982.890625 1335.460938 "/>
<path style=" stroke:none;fill-rule:evenodd;fill:rgb(26.660156%,18.431091%,52.539063%);fill-opacity:1;" d="M 1400.679688 1663.078125 C 1422.28125 1663.078125 1432.75 1652.28125 1432.75 1639.660156 C 1432.75 1611.910156 1388.789063 1621.539063 1388.789063 1607.589844 C 1388.789063 1602.820313 1392.789063 1598.929688 1403.160156 1598.929688 C 1409.859375 1598.929688 1417.089844 1600.871094 1424.109375 1604.871094 L 1429.511719 1591.578125 C 1422.488281 1587.148438 1412.769531 1584.890625 1403.269531 1584.890625 C 1381.769531 1584.890625 1371.410156 1595.578125 1371.410156 1608.449219 C 1371.410156 1636.53125 1415.359375 1626.808594 1415.359375 1640.960938 C 1415.359375 1645.589844 1411.148438 1649.039063 1400.78125 1649.039063 C 1391.710938 1649.039063 1382.210938 1645.800781 1375.828125 1641.171875 L 1369.890625 1654.328125 C 1376.589844 1659.519531 1388.691406 1663.078125 1400.679688 1663.078125 "/>
<path style=" stroke:none;fill-rule:evenodd;fill:rgb(26.660156%,18.431091%,52.539063%);fill-opacity:1;" d="M 1471.199219 1648.828125 C 1462.78125 1648.828125 1456.300781 1642.78125 1456.300781 1632.730469 C 1456.300781 1622.691406 1462.78125 1616.640625 1471.199219 1616.640625 C 1479.628906 1616.640625 1486 1622.691406 1486 1632.730469 C 1486 1642.78125 1479.628906 1648.828125 1471.199219 1648.828125 Z M 1471.199219 1662.648438 C 1489.671875 1662.648438 1503.070313 1650.230469 1503.070313 1632.730469 C 1503.070313 1615.238281 1489.671875 1602.820313 1471.199219 1602.820313 C 1452.730469 1602.820313 1439.230469 1615.238281 1439.230469 1632.730469 C 1439.230469 1650.230469 1452.730469 1662.648438 1471.199219 1662.648438 "/>
<path style=" stroke:none;fill-rule:evenodd;fill:rgb(26.660156%,18.431091%,52.539063%);fill-opacity:1;" d="M 1530.390625 1611.351563 L 1530.390625 1603.679688 L 1514.300781 1603.679688 L 1514.300781 1661.789063 L 1531.148438 1661.789063 L 1531.148438 1634.351563 C 1531.148438 1623.230469 1537.300781 1618.148438 1546.589844 1618.148438 C 1547.890625 1618.148438 1548.96875 1618.261719 1550.371094 1618.371094 L 1550.371094 1602.820313 C 1541.410156 1602.820313 1534.488281 1605.730469 1530.390625 1611.351563 "/>
<path style=" stroke:none;fill-rule:evenodd;fill:rgb(26.660156%,18.431091%,52.539063%);fill-opacity:1;" d="M 1576.511719 1611.351563 L 1576.511719 1603.679688 L 1560.421875 1603.679688 L 1560.421875 1661.789063 L 1577.261719 1661.789063 L 1577.261719 1634.351563 C 1577.261719 1623.230469 1583.421875 1618.148438 1592.710938 1618.148438 C 1594.011719 1618.148438 1595.089844 1618.261719 1596.488281 1618.371094 L 1596.488281 1602.820313 C 1587.53125 1602.820313 1580.609375 1605.730469 1576.511719 1611.351563 "/>
<path style=" stroke:none;fill-rule:evenodd;fill:rgb(26.660156%,18.431091%,52.539063%);fill-opacity:1;" d="M 1650.058594 1603.679688 L 1633.640625 1643.101563 L 1617.328125 1603.679688 L 1599.949219 1603.679688 L 1625.109375 1662.21875 L 1624.890625 1662.761719 C 1622.628906 1667.941406 1620.03125 1670 1615.390625 1670 C 1612.039063 1670 1608.480469 1668.589844 1605.890625 1666.320313 L 1599.730469 1678.308594 C 1603.511719 1681.660156 1609.988281 1683.601563 1615.929688 1683.601563 C 1626.410156 1683.601563 1634.398438 1679.390625 1640.019531 1665.351563 L 1666.261719 1603.679688 L 1650.058594 1603.679688 "/>
<path style=" stroke:none;fill-rule:evenodd;fill:rgb(26.660156%,18.431091%,52.539063%);fill-opacity:1;" d="M 1676.199219 1641.699219 C 1670.261719 1641.699219 1665.71875 1645.800781 1665.71875 1652.070313 C 1665.71875 1656.488281 1667.988281 1659.839844 1671.550781 1661.25 L 1666.800781 1678.421875 L 1677.488281 1678.421875 L 1683.648438 1662.871094 C 1686.128906 1656.929688 1686.570313 1654.871094 1686.570313 1652.070313 C 1686.570313 1645.910156 1682.25 1641.699219 1676.199219 1641.699219 "/>
<path style=" stroke:none;fill-rule:evenodd;fill:rgb(26.660156%,18.431091%,52.539063%);fill-opacity:1;" d="M 1761.519531 1626.679688 L 1747.269531 1626.679688 L 1747.269531 1600.441406 L 1761.519531 1600.441406 C 1772.21875 1600.441406 1777.621094 1605.300781 1777.621094 1613.621094 C 1777.621094 1621.820313 1772.21875 1626.679688 1761.519531 1626.679688 Z M 1762.5 1586.179688 L 1729.769531 1586.179688 L 1729.769531 1661.789063 L 1747.269531 1661.789063 L 1747.269531 1640.941406 L 1762.5 1640.941406 C 1782.691406 1640.941406 1795.328125 1630.460938 1795.328125 1613.621094 C 1795.328125 1596.660156 1782.691406 1586.179688 1762.5 1586.179688 "/>
<path style=" stroke:none;fill-rule:evenodd;fill:rgb(26.660156%,18.431091%,52.539063%);fill-opacity:1;" d="M 1828.160156 1651.308594 C 1822.21875 1651.308594 1818.660156 1648.5 1818.660156 1644.289063 C 1818.660156 1640.398438 1821.140625 1637.488281 1829.03125 1637.488281 L 1840.578125 1637.488281 L 1840.578125 1643.421875 C 1838.640625 1648.71875 1833.78125 1651.308594 1828.160156 1651.308594 Z M 1829.460938 1602.820313 C 1820.171875 1602.820313 1810.769531 1605.300781 1804.398438 1609.839844 L 1810.449219 1621.609375 C 1814.660156 1618.261719 1821.03125 1616.210938 1827.191406 1616.210938 C 1836.261719 1616.210938 1840.578125 1620.421875 1840.578125 1627.660156 L 1827.191406 1627.660156 C 1809.480469 1627.660156 1802.238281 1634.789063 1802.238281 1645.050781 C 1802.238281 1655.089844 1810.339844 1662.648438 1823.949219 1662.648438 C 1832.480469 1662.648438 1838.53125 1659.839844 1841.660156 1654.550781 L 1841.660156 1661.789063 L 1857.429688 1661.789063 L 1857.429688 1628.628906 C 1857.429688 1611.019531 1847.171875 1602.820313 1829.460938 1602.820313 "/>
<path style=" stroke:none;fill-rule:evenodd;fill:rgb(26.660156%,18.431091%,52.539063%);fill-opacity:1;" d="M 1901.390625 1645.148438 C 1892.53125 1645.148438 1886.050781 1639.429688 1886.050781 1630.898438 C 1886.050781 1622.359375 1892.53125 1616.640625 1901.390625 1616.640625 C 1910.25 1616.640625 1916.621094 1622.359375 1916.621094 1630.898438 C 1916.621094 1639.429688 1910.25 1645.148438 1901.390625 1645.148438 Z M 1917.269531 1603.679688 L 1917.269531 1611.128906 C 1912.839844 1605.519531 1906.140625 1602.820313 1898.039063 1602.820313 C 1881.949219 1602.820313 1868.988281 1613.941406 1868.988281 1630.898438 C 1868.988281 1647.851563 1881.949219 1658.980469 1898.039063 1658.980469 C 1905.601563 1658.980469 1911.96875 1656.601563 1916.398438 1651.738281 L 1916.398438 1654.230469 C 1916.398438 1664.699219 1911.21875 1670.101563 1899.339844 1670.101563 C 1891.890625 1670.101563 1883.789063 1667.511719 1878.820313 1663.511719 L 1872.121094 1675.609375 C 1878.929688 1680.898438 1889.621094 1683.601563 1900.640625 1683.601563 C 1921.589844 1683.601563 1933.25 1673.671875 1933.25 1652.070313 L 1933.25 1603.679688 L 1917.269531 1603.679688 "/>
<path style=" stroke:none;fill-rule:evenodd;fill:rgb(26.660156%,18.431091%,52.539063%);fill-opacity:1;" d="M 1975.699219 1615.558594 C 1983.261719 1615.558594 1988.769531 1620.308594 1989.949219 1627.660156 L 1961.328125 1627.660156 C 1962.519531 1620.199219 1968.03125 1615.558594 1975.699219 1615.558594 Z M 2005.828125 1632.949219 C 2005.828125 1614.261719 1992.648438 1602.820313 1975.589844 1602.820313 C 1957.878906 1602.820313 1944.589844 1615.339844 1944.589844 1632.730469 C 1944.589844 1650.011719 1957.660156 1662.648438 1977.75 1662.648438 C 1988.230469 1662.648438 1996.328125 1659.410156 2001.730469 1653.25 L 1992.761719 1643.53125 C 1988.769531 1647.308594 1984.339844 1649.148438 1978.179688 1649.148438 C 1969.328125 1649.148438 1963.171875 1644.71875 1961.550781 1637.488281 L 2005.511719 1637.488281 C 2005.621094 1636.078125 2005.828125 1634.25 2005.828125 1632.949219 "/>
<path style=" stroke:none;fill-rule:evenodd;fill:rgb(26.660156%,18.431091%,52.539063%);fill-opacity:1;" d="M 2100.878906 1586.179688 L 2100.878906 1632.089844 L 2063.289063 1586.179688 L 2048.820313 1586.179688 L 2048.820313 1661.789063 L 2066.101563 1661.789063 L 2066.101563 1615.878906 L 2103.789063 1661.789063 L 2118.160156 1661.789063 L 2118.160156 1586.179688 L 2100.878906 1586.179688 "/>
<path style=" stroke:none;fill-rule:evenodd;fill:rgb(26.660156%,18.431091%,52.539063%);fill-opacity:1;" d="M 2162.550781 1648.828125 C 2154.121094 1648.828125 2147.648438 1642.78125 2147.648438 1632.730469 C 2147.648438 1622.691406 2154.121094 1616.640625 2162.550781 1616.640625 C 2170.96875 1616.640625 2177.351563 1622.691406 2177.351563 1632.730469 C 2177.351563 1642.78125 2170.96875 1648.828125 2162.550781 1648.828125 Z M 2162.550781 1662.648438 C 2181.019531 1662.648438 2194.410156 1650.230469 2194.410156 1632.730469 C 2194.410156 1615.238281 2181.019531 1602.820313 2162.550781 1602.820313 C 2144.078125 1602.820313 2130.578125 1615.238281 2130.578125 1632.730469 C 2130.578125 1650.230469 2144.078125 1662.648438 2162.550781 1662.648438 "/>
<path style=" stroke:none;fill-rule:evenodd;fill:rgb(26.660156%,18.431091%,52.539063%);fill-opacity:1;" d="M 2238.578125 1647.101563 C 2236.75 1648.5 2234.261719 1649.261719 2231.78125 1649.261719 C 2227.238281 1649.261719 2224.539063 1646.558594 2224.539063 1641.589844 L 2224.539063 1617.941406 L 2239.019531 1617.941406 L 2239.019531 1604.980469 L 2224.539063 1604.980469 L 2224.539063 1590.828125 L 2207.691406 1590.828125 L 2207.691406 1604.980469 L 2198.730469 1604.980469 L 2198.730469 1617.941406 L 2207.691406 1617.941406 L 2207.691406 1641.808594 C 2207.691406 1655.628906 2215.691406 1662.648438 2229.398438 1662.648438 C 2234.589844 1662.648438 2239.660156 1661.460938 2243.121094 1658.980469 L 2238.578125 1647.101563 "/>
<path style=" stroke:none;fill-rule:evenodd;fill:rgb(26.660156%,18.431091%,52.539063%);fill-opacity:1;" d="M 2341.511719 1600.21875 L 2341.511719 1586.179688 L 2284.378906 1586.179688 L 2284.378906 1661.789063 L 2301.878906 1661.789063 L 2301.878906 1634.25 L 2336.871094 1634.25 L 2336.871094 1620.199219 L 2301.878906 1620.199219 L 2301.878906 1600.21875 L 2341.511719 1600.21875 "/>
<path style=" stroke:none;fill-rule:evenodd;fill:rgb(26.660156%,18.431091%,52.539063%);fill-opacity:1;" d="M 2378.339844 1648.828125 C 2369.921875 1648.828125 2363.441406 1642.78125 2363.441406 1632.730469 C 2363.441406 1622.691406 2369.921875 1616.640625 2378.339844 1616.640625 C 2386.769531 1616.640625 2393.140625 1622.691406 2393.140625 1632.730469 C 2393.140625 1642.78125 2386.769531 1648.828125 2378.339844 1648.828125 Z M 2378.339844 1662.648438 C 2396.808594 1662.648438 2410.210938 1650.230469 2410.210938 1632.730469 C 2410.210938 1615.238281 2396.808594 1602.820313 2378.339844 1602.820313 C 2359.878906 1602.820313 2346.378906 1615.238281 2346.378906 1632.730469 C 2346.378906 1650.230469 2359.878906 1662.648438 2378.339844 1662.648438 "/>
<path style=" stroke:none;fill-rule:evenodd;fill:rgb(26.660156%,18.431091%,52.539063%);fill-opacity:1;" d="M 2463.128906 1603.679688 L 2463.128906 1632.410156 C 2463.128906 1643.101563 2457.511719 1648.070313 2449.738281 1648.070313 C 2442.28125 1648.070313 2437.960938 1643.75 2437.960938 1634.03125 L 2437.960938 1603.679688 L 2421.109375 1603.679688 L 2421.109375 1636.511719 C 2421.109375 1654.441406 2431.378906 1662.648438 2445.960938 1662.648438 C 2453.078125 1662.648438 2459.558594 1659.949219 2463.988281 1654.871094 L 2463.988281 1661.789063 L 2479.980469 1661.789063 L 2479.980469 1603.679688 L 2463.128906 1603.679688 "/>
<path style=" stroke:none;fill-rule:evenodd;fill:rgb(26.660156%,18.431091%,52.539063%);fill-opacity:1;" d="M 2530.960938 1602.820313 C 2523.070313 1602.820313 2516.269531 1605.519531 2511.730469 1610.480469 L 2511.730469 1603.679688 L 2495.640625 1603.679688 L 2495.640625 1661.789063 L 2512.488281 1661.789063 L 2512.488281 1633.058594 C 2512.488281 1622.359375 2518.320313 1617.398438 2526.421875 1617.398438 C 2533.871094 1617.398438 2538.191406 1621.71875 2538.191406 1631.109375 L 2538.191406 1661.789063 L 2555.039063 1661.789063 L 2555.039063 1628.519531 C 2555.039063 1610.808594 2544.671875 1602.820313 2530.960938 1602.820313 "/>
<path style=" stroke:none;fill-rule:evenodd;fill:rgb(26.660156%,18.431091%,52.539063%);fill-opacity:1;" d="M 2598.78125 1648.828125 C 2590.359375 1648.828125 2583.878906 1642.78125 2583.878906 1632.730469 C 2583.878906 1622.691406 2590.359375 1616.640625 2598.78125 1616.640625 C 2607.101563 1616.640625 2613.578125 1622.691406 2613.578125 1632.730469 C 2613.578125 1642.78125 2607.101563 1648.828125 2598.78125 1648.828125 Z M 2613.261719 1581.648438 L 2613.261719 1609.839844 C 2609.050781 1605.078125 2603 1602.820313 2595.871094 1602.820313 C 2579.449219 1602.820313 2566.808594 1614.480469 2566.808594 1632.730469 C 2566.808594 1650.988281 2579.449219 1662.648438 2595.871094 1662.648438 C 2603.648438 1662.648438 2609.800781 1660.171875 2614.011719 1655.089844 L 2614.011719 1661.789063 L 2630.109375 1661.789063 L 2630.109375 1581.648438 L 2613.261719 1581.648438 "/>
</g>
</svg>
